<?xml version="1.0" encoding="utf-8"?>
<!-- Generator: Adobe Illustrator 18.0.0, SVG Export Plug-In . SVG Version: 6.00 Build 0)  -->
<!DOCTYPE svg PUBLIC "-//W3C//DTD SVG 1.1//EN" "http://www.w3.org/Graphics/SVG/1.1/DTD/svg11.dtd">
<svg version="1.1" xmlns="http://www.w3.org/2000/svg" xmlns:xlink="http://www.w3.org/1999/xlink" x="0px" y="0px"
	 viewBox="85 85 150 150" enable-background="new 85 85 150 150" xml:space="preserve">
<g id="Layer_1" display="none">
	<path display="inline" fill="#717B85" d="M289,112l-0.3-0.3h-5.1c-7-8-16.6-15-28.5-21.1c-25.3-13.1-58.9-20.2-94.4-20.2
		s-68.8,7-94.4,20.2c-12.2,6.1-21.8,13.4-28.5,21.1h-5.1l-0.3,0.3c-6.1,8.3-10.6,19.2-10.6,30.4c0,11.5,4.5,22.1,10.6,30.4l0.3,0.3
		h4.8c7,8,16.6,15.7,29.1,21.8C91.8,207.7,125.4,215,161,215s68.8-7,94.4-20.2c12.2-6.4,22.1-13.8,29.1-21.8h4.8l0.3-0.3
		c6.1-8.6,10.6-19.2,10.6-30.4C299.5,130.9,295,120.3,289,112z M283.5,160v5.4l-0.3,0.3c-18.2,25.9-66.2,44.5-122.6,44.5
		c-57,0-105-18.6-123.2-44.8l-0.3-0.3v-5.4c-2.6-5.4-3.8-10.9-3.8-16.6s1.3-11.2,3.8-16.6V121l0.3-0.3
		c17.9-26.2,66.2-44.8,123.2-44.8c56.3,0,104.3,18.2,122.6,44.5l0.3,0.3v5.4c2.9,5.4,4.5,11.2,4.5,17.3
		C288,148.8,286.4,154.6,283.5,160z"/>
	<path display="inline" fill="#717B85" d="M163.8,199.7c10.2-2.2,4.5-15.7,2.2-19.2c0,0-1-1.3-1,0c0,1.3,1.6,13.4-1.3,13.4
		c-1.3,0-2.6-12.8-2.6-13.4s-1-0.6-1,0s-1.6,13.4-2.6,13.4c-3.2,0-1.3-13.1-1.3-13.4c0-1-1,0-1,0c-2.2,3.5-8,17,2.2,19.2
		c0.6,0-1,2.6-1.9,11.8c3.5,0,6.7,0,9.9,0C164.8,202.6,162.9,199.7,163.8,199.7z"/>
	<path display="inline" fill="#717B85" d="M176,166.4c0.6-2.2,2.2-3.8,3.8-4.8c2.9-1.3,7-1,11.2,0.6l1.9,0.6l-0.6,1.9
		c0,0.6-0.3,1-0.3,1.6c-1.9,6.4-5.4,8.3-7.4,9c-2.2,0.6-4.2,0-6.1-1l-3.2-3.2C175.4,169.3,175.4,167.7,176,166.4L176,166.4z"/>
	<path display="inline" fill="#717B85" d="M180.2,172.2c2.6,2.2,8,1.6,10.2-8c-6.7-2.6-16.6,0-12.2,6.4
		C178.6,171.2,179.5,171.8,180.2,172.2z"/>
	<path display="inline" fill="#717B85" d="M130.6,177.9c-2.9,0-5.8-0.6-8.6-2.6l-1.6-1l0.6-1.6c0-0.3,2.6-5.4,9-5.8
		c1.6,0,3.2,0,5.8,1c1.6,0.6,3.5,1.6,4.2,3.5C139.2,175,134.7,177.9,130.6,177.9L130.6,177.9z"/>
	<path display="inline" fill="#717B85" d="M123.2,173.4c7,4.5,12.2,1.6,14.1-1.3c-0.6-0.6-1.6-1.6-2.6-1.9
		C126.1,166.7,123.2,173.4,123.2,173.4z"/>
	<path display="inline" fill="#717B85" d="M133.4,188.5c-1.9,0-4.5-0.3-7.4-1l-2.2-0.6V185c0.6-9,5.4-10.2,7.4-10.2
		c2.6,0,6.4,1.6,7.7,3.8c1,1.6,1.6,4.5,0.6,6.7C139.2,186.6,137.6,188.2,133.4,188.5L133.4,188.5z"/>
	<path display="inline" fill="#717B85" d="M136,178.6c-3.8-2.6-9.6-3.8-10.2,7c15.7,3.5,13.4-4.5,12.2-5.8
		C137,178.9,136,178.6,136,178.6z"/>
	<path display="inline" fill="#717B85" d="M148.8,178.6l-0.6,0.6c-3.5-0.6-6.1,0-8,1.9c-2.2,2.2-3.5,4.8-2.9,9.6l0.3,1.6l1.6,0.3
		c0,0,4.8,1,8.3-1.6c2.2-1.6,3.2-4.2,3.5-7.7v-1.6v-2.2L148.8,178.6z"/>
	<path display="inline" fill="#717B85" d="M139.2,190.4c-0.6-5.4,0.6-10.9,8-9.6c0.6,0.3,0.6,0.6,1,1.6
		C148.2,191,143,190.7,139.2,190.4z"/>
	<path display="inline" fill="#717B85" d="M157.4,169.3c3.5-3.8,2.2-8.6,1.3-10.2c-1.9-2.9-5.8-4.2-11.2-4.2c-0.3,0-0.6,0-1,0h-2.2
		v1.9c-0.6,6.4,1.3,9.6,2.9,11.2c1.6,1.6,3.2,2.2,5.4,2.2c0.6,0,1,0,1.9-0.3C155.2,169.9,157.4,169.3,157.4,169.3z"/>
	<path display="inline" fill="#717B85" d="M153.6,167.7c-2.9,1.3-8-1-7-10.6c7-0.3,12.8,2.6,9.6,9.6
		C155.5,167.4,155.2,167.4,153.6,167.7z"/>
	<path display="inline" fill="#717B85" d="M147.2,164.8c-0.6-1.9-1.6-3.5-3.2-4.5c-2.6-1.6-6.1-1.6-10.2-0.3l-1.9,0.6l0.3,1.9
		c0,0.6,0,1,0.3,1.3c1.3,6.1,4.5,8,6.1,8.6c1.9,0.6,6.4-0.6,7-1c0.6-0.6,1.3-1.6,1.6-2.2C147.5,168.3,147.5,166.1,147.2,164.8
		L147.2,164.8z"/>
	<path display="inline" fill="#717B85" d="M142.7,169.6c-2.2,1.6-7,0.6-8.6-8c6.4-1.9,12.2-0.3,10.6,6.7
		C144.6,169.3,143.7,169.3,142.7,169.6z"/>
	<path display="inline" fill="#717B85" d="M155.2,168.6c-1-2.2-7.4-3.2-9.3-2.6c-2.9,1-4.8,3.8-5.4,8c0,0.3,0,0.6,0,0.6v1.6l1.9,0.3
		c5.8,1.3,9.3,0.3,10.9-0.6c1.6-1,2.2-2.2,2.6-3.8c0-0.6,0-0.6,0-1.3C155.2,170.2,155.8,169.3,155.2,168.6z"/>
	<path display="inline" fill="#717B85" d="M153.3,171.2c0.6,2.9-1.6,5.8-11.2,3.5c0.6-6.4,3.8-9.6,10.9-5.4
		C153,170.2,153.3,170.6,153.3,171.2z"/>
	<path display="inline" fill="#717B85" d="M179.2,170.2c1.3,1.6,2.2,3.5,2.6,5.1v1.6l-1.3,0.6c-5.8,3.2-9,1.3-10.9-1
		c-3.2-4.2-2.6-4.8-2.6-5.8c0.3-1.6,1.6-2.9,1.6-2.9c1-1,2.6-1.6,4.2-1.6C175,166.4,177.3,168,179.2,170.2L179.2,170.2z"/>
	<path display="inline" fill="#717B85" d="M169.6,171.2c1.6,3.2,3.8,8,9.9,4.5c-0.6-6.4-6.4-9-9-5.8
		C169.6,170.9,169.6,171.2,169.6,171.2z"/>
	<path display="inline" fill="#717B85" d="M184.3,174.7c2.6-3.8,7-4.5,9-4.2c3.2,0.6,5.8,3.5,7,8c0,0.3,0,0.6,0.3,0.6l0.6,1.6
		l-1.6,0.6c-5.4,2.6-9,1.9-10.9,1c-1.6-0.6-2.9-2.2-3.5-3.8c0-0.6,0-1-0.3-1.6C184.3,176.3,184.3,174.7,184.3,174.7z"/>
	<path display="inline" fill="#717B85" d="M186.9,177c-0.3,2.9,3.2,6.1,11.5,2.6c-1.6-6.1-6.1-9.9-11.5-4.8
		C186.9,175.4,186.9,176,186.9,177z"/>
	<path display="inline" fill="#717B85" d="M185.9,191.4c-2.2-0.6-4.2-2.6-5.8-5.1l-1.9-3.5c0,0,3.8-5.8,10.9-3.5
		c3.8,1.3,5.8,4.8,6.7,8l0.6,1.6l-1.3,1C195.2,189.4,190.7,193,185.9,191.4L185.9,191.4z"/>
	<path display="inline" fill="#717B85" d="M193.9,187.8c-1.9-5.1-5.8-9.3-11.8-4.8c0,0.6,0,1.6,0.3,2.6
		C186.9,193.3,193.9,187.8,193.9,187.8z"/>
	<path display="inline" fill="#717B85" d="M165.8,169c-2.2-1.6-0.6-7,1.6-9c1.6-1.6,4.8-3.8,9.9-3.8h1.9l0.3,1.6
		c0.6,3.2,0.3,9.3-7.7,11.2C171.2,169,168.6,170.2,165.8,169z"/>
	<path display="inline" fill="#717B85" d="M177.6,158.1c-8.3,0.3-11.2,4.8-9.9,9c1,0.3,1.3,0.3,2.9,0
		C179.2,165.1,177.6,158.1,177.6,158.1z"/>
	<path display="inline" fill="#717B85" d="M169,163.2c0-2.2-0.6-4.8-1.6-8l-1-2.2l-2.2,0.3c-9.6,1.6-10.2,7-10.2,9
		c0,2.9,1.9,6.4,4.5,8c1.9,1,4.8,1.6,7,0C167.4,169.6,169,167.4,169,163.2L169,163.2z"/>
	<path display="inline" fill="#717B85" d="M158.1,167c-2.6-3.5-2.9-10.2,7-11.8c5.4,17-3.5,15-4.8,13.8
		C158.7,168,158.1,167,158.1,167z"/>
	<path display="inline" fill="#717B85" d="M181.1,194.2h-1.6c-3.2,0-5.4-0.6-6.7-1.9c-2.2-1.9-1.9-4.8-1.9-7l1.3-2.9
		c0,0,1.6-1.6,3.8-1.6c1.6,0,3.2,0.6,4.5,2.6c1.9,2.6,2.6,6.7,1.3,9.6L181.1,194.2L181.1,194.2z"/>
	<path display="inline" fill="#717B85" d="M173.1,185c0,3.2-0.6,7.4,6.4,7c1.6-3.5-0.6-10.2-4.2-9C173.4,184,173.1,185,173.1,185z"
		/>
	<path display="inline" fill="#717B85" d="M160,175c3.5-3.2,9.3-1.6,11.2,0c2.9,2.2,4.2,6.1,3.8,10.9c0,0.3,0,0.6,0,1l-0.6,1.9h-2.2
		c-6.7,0-9.9-1.6-11.8-3.5c-1.6-1.6-2.2-3.2-1.9-5.4c0-0.6,0.3-1,0.6-1.9C159.4,177.3,156.8,177.9,160,175z"/>
	<path display="inline" fill="#717B85" d="M161.6,178.9c-1.6,2.9,0.6,7.7,10.6,7.4c1-7-1.9-12.8-9.6-9.9
		C162.2,177.6,162.2,177.9,161.6,178.9z"/>
	<path fill="#717B85" d="M150.1,187.2l-1-1.6c-2.2-3.8-2.6-7.4-1.3-9.6c2.6-3.8,9.3-2.9,12.2,0.6c1,1.3,1.3,2.6,0.6,3.8
		c-0.6,2.6-3.5,4.2-9,5.8L150.1,187.2L150.1,187.2z"/>
	<path fill="#717B85" d="M154.6,176c-1-1-9-0.6-3.5,8.6c11.8-3.5,6.4-7.4,5.1-7.7C155.2,176,154.6,176,154.6,176z"/>
	<path fill="#717B85" d="M176.6,167c0,0.6-0.6,1.6-1.9,1.6c-1.3,0-1.9-0.6-1.9-1.3s0.6-1.6,1.9-1.6C176,165.4,176.6,166.1,176.6,167
		z"/>
	<path fill="#717B85" d="M61.8,130.9c0,2.6,0,3.5,0,6.1c3.8-0.3,5.8-0.6,9.3-1.3c0,2.2,0,3.5,0,5.8c-3.8,0.6-5.8,0.6-9.3,1.3
		c0,3.8,0,6.1,0,9.9c-2.6,0.3-3.8,0.6-6.4,1c0-10.9,0-16.6,0-27.5c6.7-1,10.2-1.6,17.3-2.2c0,2.2,0,3.5,0,5.8
		C68.2,130.2,65.9,130.6,61.8,130.9z"/>
	<path fill="#717B85" d="M89,149.8c-8.3,0.6-13.8-4.8-13.8-12.8s5.8-14.7,14.1-15.7c8.3-0.6,13.8,4.8,13.8,12.8
		C103,142.4,97.3,149.1,89,149.8z M89,127.4c-4.5,0.3-7,4.2-7,9.3c0,5.1,2.9,8,7,7.7s7-4.2,7-9.3C96,130.2,93.1,126.7,89,127.4z"/>
	<path fill="#717B85" d="M114.9,147.8c-8.6,0.6-13.8-5.1-13.8-13.1s5.8-14.7,14.1-15.4c8.3-0.6,13.8,5.4,13.8,13.4
		C129,140.8,123.2,147.2,114.9,147.8z M114.9,125.1c-4.2,0.3-7,4.2-7,9c0,4.8,2.9,8.3,7,8c4.2-0.3,7-3.8,7-9
		C122.2,128.3,119.4,124.8,114.9,125.1z"/>
	<path fill="#717B85" d="M141.4,146.2c-3.2,0-4.8,0-8.3,0c0-10.9,0-16,0-26.9c3.2-0.6,5.4-0.6,8-0.6c11.2-0.3,16.6,5.8,16.6,13.4
		C157.8,140.2,153,145.9,141.4,146.2z M142.1,124.2c-1,0-1.6,0-2.6,0.3c0,6.4,0,9.6,0,16c1,0,1.6,0,3.2,0c6.1,0,8.6-3.5,8.6-8.6
		C151,127,147.8,124.2,142.1,124.2z"/>
	<path fill="#717B85" d="M171.8,146.2c-2.6,0-5.4-0.3-8-0.6c0-10.6,0-16,0-26.9c1.9-0.3,5.4-0.6,7.7-0.6c8,0,12.2,3.8,12.2,7.7
		c0,2.9-4.8,6.1-4.8,6.1c0,0.3,5.4,3.5,5.4,6.4C184,142.7,179.8,146.2,171.8,146.2z M172.8,123.8c-1,0-1.9,0-2.9,0.3
		c0,2.2,0,3.5,0,5.8c0.6,0,1.3,0,2.2,0c3.2,0,4.5-1,4.5-3.2C176.6,125.1,175.4,123.8,172.8,123.8z M172.2,134.1c-1,0-1.6,0-2.6,0
		c0,2.6,0,3.8,0,6.4c1,0,1.3,0.3,2.6,0.3c3.2,0,4.8-1.3,4.8-3.2C177.3,135.4,175.7,134.1,172.2,134.1z"/>
	<path fill="#717B85" d="M206.1,147.2c-0.6-2.2-1.3-3.2-2.2-5.1c-3.8-0.3-5.8-0.3-9.6-0.3c-0.6,1.9-1.3,2.9-2.2,4.8
		c-2.6,0-3.8,0-6.4-0.3c5.1-10.9,7.7-16.3,12.8-27.2c0.3,0,0.6,0,1,0c5.1,11.2,7.7,17,12.8,28.5
		C210.2,147.2,208.6,147.2,206.1,147.2z M199.4,130.2c-1,2.6-1.6,3.8-2.6,6.4c2.2,0,3.2,0.3,5.4,0.3
		C201,134.4,200.6,132.8,199.4,130.2z"/>
	<path fill="#717B85" d="M238.7,150.1c-6.7-6.4-9.9-9.6-16.3-16.3c0,5.8,0,8.6,0,14.4c-2.6,0-3.8-0.3-6.4-0.6c0-11.2,0-16.6,0-28.2
		c0.3,0,0.6,0,1,0c6.4,6.4,9.9,9.6,16.3,16c0-5.8,0-8.6,0-14.4c2.6,0.3,3.8,0.3,6.4,0.6c0,11.2,0,16.6,0,27.8
		C239.4,150.1,239,150.1,238.7,150.1z"/>
	<path fill="#717B85" d="M263,152.3c-3.8-5.8-6.1-8.6-9.9-14.1c0,5.1,0,7.7,0,12.8c-2.6-0.3-3.8-0.6-6.4-0.6c0-10.9,0-16.6,0-27.5
		c2.6,0.3,3.8,0.3,6.4,0.6c0,4.8,0,7,0,11.8c3.8-4.2,5.8-6.4,9.6-10.6c2.9,0.3,4.5,0.6,7.4,1c-4.5,4.5-6.7,7-11.2,11.5
		c4.8,6.4,7,9.6,11.8,16C267.8,153,266.2,153,263,152.3z"/>
	<path fill="#717B85" d="M89.6,102.1c0,1.3,0,1.9,0,3.2c1.9,0,3.2-0.3,5.1-0.3c0,1.3,0,1.9,0,3.2c-1.9,0-3.2,0.3-5.1,0.3
		c0,2.2,0,3.2,0,5.4c-1.3,0-1.9,0.3-3.5,0.3c0-6.1,0-9,0-15.4c3.8-0.3,5.8-0.6,9.6-1c0,1.3,0,1.9,0,3.2
		C93.1,101.8,91.8,101.8,89.6,102.1z"/>
	<path fill="#717B85" d="M111,112.3c-1-1.9-1.6-2.9-2.6-4.8c-0.3,0-0.3,0-0.6,0c-0.6,0-0.6,0-1.3,0c0,1.9,0,2.9,0,4.8
		c-1.6,0-2.2,0.3-3.5,0.3c0-6.1,0-9,0-15c1.3-0.3,2.6-0.3,4.5-0.6c4.8-0.3,6.4,1.6,6.4,4.5c0,1.6-1,3.5-2.6,4.5
		c1.6,2.2,2.2,3.2,3.5,5.8C113.3,112,112.6,112,111,112.3z M107.8,100.5c-0.6,0-1,0-1.3,0.3c0,1.6,0,2.6,0,4.2c0.6,0,0.6,0,1,0
		c1.6,0,2.6-1,2.6-2.6C110.4,100.8,109.4,100.5,107.8,100.5z"/>
	<path fill="#717B85" d="M121.9,111.7c0-6.1,0-9.3,0-15.4c3.8-0.3,5.8-0.3,9.6-0.3c0,1.3,0,1.9,0,3.2c-2.6,0-3.5,0-6.1,0.3
		c0,1.3,0,1.6,0,2.9c2.2,0,3.2,0,5.4-0.3c0,1.3,0,1.9,0,3.2c-2.2,0-3.2,0-5.4,0.3c0,1.3,0,1.6,0,2.9c2.6,0,3.5,0,6.1-0.3
		c0,1.3,0,1.9,0,3.2C127.7,111.4,125.8,111.4,121.9,111.7z"/>
	<path fill="#717B85" d="M140.5,111c0-6.1,0-9.3,0-15.4c3.8,0,5.8,0,9.6-0.3c0,1.3,0,1.9,0,3.2c-2.6,0-3.5,0-6.1,0
		c0,1.3,0,1.6,0,2.9c2.2,0,3.2,0,5.4,0c0,1.3,0,1.9,0,3.2c-2.2,0-3.2,0-5.4,0c0,1.3,0,1.6,0,2.9c2.6,0,3.5,0,6.1,0
		c0,1.3,0,1.9,0,3.2C146.2,110.7,144.3,110.7,140.5,111z"/>
	<path fill="#717B85" d="M161.6,110.7c-1.6,0-3.8-0.6-5.1-1.6c0.3-1.3,0.6-1.9,1-3.2c1.3,1,2.9,1.6,4.2,1.6s1.6-0.6,1.6-1.3
		c0-0.6-0.3-1.3-2.6-2.2c-2.6-1-3.5-2.6-3.5-4.5c0-2.2,1.6-4.5,5.4-4.5c1.6,0,3.2,0.6,4.2,1.3c-0.3,1.3-0.6,1.9-1,3.2
		c-1-0.6-2.2-1.3-3.2-1.3c-1.3,0-1.6,0.6-1.6,1.3c0,1,0.6,1.3,2.6,1.9c2.9,1.3,3.8,2.6,3.8,4.5C167,108.5,165.4,110.7,161.6,110.7z"
		/>
	<path fill="#717B85" d="M179.8,98.6c0,4.8,0,7,0,11.8c-1.3,0-2.2,0-3.5,0c0-4.8,0-7,0-11.8c-1.9,0-2.6,0-4.5,0c0-1.3,0-1.9,0-3.2
		c5.1,0,7.4,0,12.5,0.3c0,1.3,0,1.9,0,3.2C182.7,98.9,181.8,98.9,179.8,98.6z"/>
	<path fill="#717B85" d="M196.5,111.4c-4.5,0-7.7-3.5-7.7-8s3.2-7.7,7.7-7.7c4.8,0,7.7,3.8,7.7,8.3
		C204.2,108.5,201,111.7,196.5,111.4z M196.5,98.9c-2.6,0-3.8,1.9-3.8,4.5c0,2.9,1.6,4.8,3.8,4.8c2.6,0,3.8-1.9,3.8-4.5
		C200.6,101.1,199,99.2,196.5,98.9z"/>
	<path fill="#717B85" d="M218.9,112.6c-1-2.2-1.6-3.2-2.6-5.1c-0.3,0-0.3,0-0.6,0c-0.6,0-0.6,0-1.3,0c0,1.9,0,2.9,0,4.8
		c-1.3,0-2.2,0-3.5-0.3c0-6.1,0-9,0-15c1.3,0,2.6,0,4.5,0c4.8,0.3,6.7,2.9,6.7,5.4c0,1.6-1,3.2-2.6,4.2c1.3,2.6,2.2,3.8,3.5,6.1
		C221.1,112.6,220.5,112.6,218.9,112.6z M215.7,100.2c-0.6,0-1,0-1.3,0c0,1.6,0,2.6,0,4.2c0.6,0,0.6,0,1,0c1.6,0,2.6-0.6,2.6-2.2
		C218.2,101.1,217.3,100.2,215.7,100.2z"/>
	<path fill="#717B85" d="M229.1,113.3c0-6.1,0-9.3,0-15.4c3.8,0.3,5.8,0.3,9.6,1c0,1.3,0,1.9,0,3.2c-2.6-0.3-3.5-0.3-6.1-0.6
		c0,1.3,0,1.6,0,2.9c2.2,0.3,3.2,0.3,5.4,0.6c0,1.3,0,1.9,0,3.2c-2.2-0.3-3.2-0.3-5.4-0.6c0,1.3,0,1.6,0,2.9
		c2.6,0.3,3.5,0.3,6.1,0.6c0,1.3,0,1.9,0,3.2C234.9,113.9,233,113.6,229.1,113.3z"/>
	<path fill="#717B85" d="M61.8,130.9c0,2.6,0,3.5,0,6.1c3.8-0.3,5.8-0.6,9.3-1.3c0,2.2,0,3.5,0,5.8c-3.8,0.6-5.8,0.6-9.3,1.3
		c0,3.8,0,6.1,0,9.9c-2.6,0.3-3.8,0.6-6.4,1c0-10.9,0-16.6,0-27.5c6.7-1,10.2-1.6,17.3-2.2c0,2.2,0,3.5,0,5.8
		C68.2,130.2,65.9,130.6,61.8,130.9z"/>
	<path fill="#717B85" d="M89,149.8c-8.3,0.6-13.8-4.8-13.8-12.8s5.8-14.7,14.1-15.7c8.3-0.6,13.8,4.8,13.8,12.8
		C103,142.4,97.3,149.1,89,149.8z M89,127.4c-4.5,0.3-7,4.2-7,9.3c0,5.1,2.9,8,7,7.7s7-4.2,7-9.3C96,130.2,93.1,126.7,89,127.4z"/>
	<path fill="#717B85" d="M114.9,147.8c-8.6,0.6-13.8-5.1-13.8-13.1s5.8-14.7,14.1-15.4c8.3-0.6,13.8,5.4,13.8,13.4
		C129,140.8,123.2,147.2,114.9,147.8z M114.9,125.1c-4.2,0.3-7,4.2-7,9c0,4.8,2.9,8.3,7,8c4.2-0.3,7-3.8,7-9
		C122.2,128.3,119.4,124.8,114.9,125.1z"/>
	<path fill="#717B85" d="M141.4,146.2c-3.2,0-4.8,0-8.3,0c0-10.9,0-16,0-26.9c3.2-0.6,5.4-0.6,8-0.6c11.2-0.3,16.6,5.8,16.6,13.4
		C157.8,140.2,153,145.9,141.4,146.2z M142.1,124.2c-1,0-1.6,0-2.6,0.3c0,6.4,0,9.6,0,16c1,0,1.6,0,3.2,0c6.1,0,8.6-3.5,8.6-8.6
		C151,127,147.8,124.2,142.1,124.2z"/>
	<path fill="#717B85" d="M171.8,146.2c-2.6,0-5.4-0.3-8-0.6c0-15.4,0-20.8,0-26.9c1.9-0.3,5.4-0.6,7.7-0.6c8,0,12.2,3.8,12.2,7.7
		c0,2.9-4.8,6.1-4.8,6.1c0,0.3,5.4,3.5,5.4,6.4C184,142.7,179.8,146.2,171.8,146.2z M172.8,123.8c-1,0-1.9,0-2.9,0.3
		c0,2.2,0,3.5,0,5.8c0.6,0,1.3,0,2.2,0c3.2,0,4.5-1,4.5-3.2C176.6,125.1,175.4,123.8,172.8,123.8z M172.2,134.1c-1,0-1.6,0-2.6,0
		c0,2.6,0,3.8,0,6.4c1,0,1.3,0.3,2.6,0.3c3.2,0,4.8-1.3,4.8-3.2C177.3,135.4,175.7,134.1,172.2,134.1z"/>
	<path fill="#717B85" d="M206.1,147.2c-0.6-2.2-1.3-3.2-2.2-5.1c-3.8-0.3-5.8-0.3-9.6-0.3c-0.6,1.9-1.3,2.9-2.2,4.8
		c-2.6,0-3.8,0-6.4-0.3c5.1-10.9,7.7-16.3,12.8-27.2c0.3,0,0.6,0,1,0c5.1,11.2,7.7,17,12.8,28.5
		C210.2,147.2,208.6,147.2,206.1,147.2z M199.4,130.2c-1,2.6-1.6,3.8-2.6,6.4c2.2,0,3.2,0.3,5.4,0.3
		C201,134.4,200.6,132.8,199.4,130.2z"/>
	<path fill="#717B85" d="M238.7,150.1c-6.7-6.4-9.9-9.6-16.3-16.3c0,5.8,0,8.6,0,14.4c-2.6,0-3.8-0.3-6.4-0.6c0-11.2,0-16.6,0-28.2
		c0.3,0,0.6,0,1,0c6.4,6.4,9.9,9.6,16.3,16c0-5.8,0-8.6,0-14.4c2.6,0.3,3.8,0.3,6.4,0.6c0,11.2,0,16.6,0,27.8
		C239.4,150.1,239,150.1,238.7,150.1z"/>
	<path fill="#717B85" d="M263,152.3c-3.8-5.8-6.1-8.6-9.9-14.1c0,5.1,0,7.7,0,12.8c-2.6-0.3-3.8-0.6-6.4-0.6c0-10.9,0-16.6,0-27.5
		c2.6,0.3,3.8,0.3,6.4,0.6c0,4.8,0,7,0,11.8c3.8-4.2,5.8-6.4,9.6-10.6c2.9,0.3,4.5,0.6,7.4,1c-4.5,4.5-6.7,7-11.2,11.5
		c4.8,6.4,7,9.6,11.8,16C267.8,153,266.2,153,263,152.3z"/>
	<path fill="#717B85" d="M89.6,102.1c0,1.3,0,1.9,0,3.2c1.9,0,3.2-0.3,5.1-0.3c0,1.3,0,1.9,0,3.2c-1.9,0-3.2,0.3-5.1,0.3
		c0,2.2,0,3.2,0,5.4c-1.3,0-1.9,0.3-3.5,0.3c0-6.1,0-9,0-15.4c3.8-0.3,5.8-0.6,9.6-1c0,1.3,0,1.9,0,3.2
		C93.1,101.8,91.8,101.8,89.6,102.1z"/>
	<path fill="#717B85" d="M111,112.3c-1-1.9-1.6-2.9-2.6-4.8c-0.3,0-0.3,0-0.6,0c-0.6,0-0.6,0-1.3,0c0,1.9,0,2.9,0,4.8
		c-1.6,0-2.2,0.3-3.5,0.3c0-6.1,0-9,0-15c1.3-0.3,2.6-0.3,4.5-0.6c4.8-0.3,6.4,1.6,6.4,4.5c0,1.6-1,3.5-2.6,4.5
		c1.6,2.2,2.2,3.2,3.5,5.8C113.3,112,112.6,112,111,112.3z M107.8,100.5c-0.6,0-1,0-1.3,0.3c0,1.6,0,2.6,0,4.2c0.6,0,0.6,0,1,0
		c1.6,0,2.6-1,2.6-2.6C110.4,100.8,109.4,100.5,107.8,100.5z"/>
	<path fill="#717B85" d="M121.9,111.7c0-6.1,0-9.3,0-15.4c3.8-0.3,5.8-0.3,9.6-0.3c0,1.3,0,1.9,0,3.2c-2.6,0-3.5,0-6.1,0.3
		c0,1.3,0,1.6,0,2.9c2.2,0,3.2,0,5.4-0.3c0,1.3,0,1.9,0,3.2c-2.2,0-3.2,0-5.4,0.3c0,1.3,0,1.6,0,2.9c2.6,0,3.5,0,6.1-0.3
		c0,1.3,0,1.9,0,3.2C127.7,111.4,125.8,111.4,121.9,111.7z"/>
	<path fill="#717B85" d="M140.5,111c0-6.1,0-9.3,0-15.4c3.8,0,5.8,0,9.6-0.3c0,1.3,0,1.9,0,3.2c-2.6,0-3.5,0-6.1,0
		c0,1.3,0,1.6,0,2.9c2.2,0,3.2,0,5.4,0c0,1.3,0,1.9,0,3.2c-2.2,0-3.2,0-5.4,0c0,1.3,0,1.6,0,2.9c2.6,0,3.5,0,6.1,0
		c0,1.3,0,1.9,0,3.2C146.2,110.7,144.3,110.7,140.5,111z"/>
	<path fill="#717B85" d="M161.6,110.7c-1.6,0-3.8-0.6-5.1-1.6c0.3-1.3,0.6-1.9,1-3.2c1.3,1,2.9,1.6,4.2,1.6s1.6-0.6,1.6-1.3
		c0-0.6-0.3-1.3-2.6-2.2c-2.6-1-3.5-2.6-3.5-4.5c0-2.2,1.6-4.5,5.4-4.5c1.6,0,3.2,0.6,4.2,1.3c-0.3,1.3-0.6,1.9-1,3.2
		c-1-0.6-2.2-1.3-3.2-1.3c-1.3,0-1.6,0.6-1.6,1.3c0,1,0.6,1.3,2.6,1.9c2.9,1.3,3.8,2.6,3.8,4.5C167,108.5,165.4,110.7,161.6,110.7z"
		/>
	<path fill="#717B85" d="M179.8,98.6c0,4.8,0,7,0,11.8c-1.3,0-2.2,0-3.5,0c0-4.8,0-7,0-11.8c-1.9,0-2.6,0-4.5,0c0-1.3,0-1.9,0-3.2
		c5.1,0,7.4,0,12.5,0.3c0,1.3,0,1.9,0,3.2C182.7,98.9,181.8,98.9,179.8,98.6z"/>
	<path fill="#717B85" d="M196.5,111.4c-4.5,0-7.7-3.5-7.7-8s3.2-7.7,7.7-7.7c4.8,0,7.7,3.8,7.7,8.3
		C204.2,108.5,201,111.7,196.5,111.4z M196.5,98.9c-2.6,0-3.8,1.9-3.8,4.5c0,2.9,1.6,4.8,3.8,4.8c2.6,0,3.8-1.9,3.8-4.5
		C200.6,101.1,199,99.2,196.5,98.9z"/>
	<path fill="#717B85" d="M218.9,112.6c-1-2.2-1.6-3.2-2.6-5.1c-0.3,0-0.3,0-0.6,0c-0.6,0-0.6,0-1.3,0c0,1.9,0,2.9,0,4.8
		c-1.3,0-2.2,0-3.5-0.3c0-6.1,0-9,0-15c1.3,0,2.6,0,4.5,0c4.8,0.3,6.7,2.9,6.7,5.4c0,1.6-1,3.2-2.6,4.2c1.3,2.6,2.2,3.8,3.5,6.1
		C221.1,112.6,220.5,112.6,218.9,112.6z M215.7,100.2c-0.6,0-1,0-1.3,0c0,1.6,0,2.6,0,4.2c0.6,0,0.6,0,1,0c1.6,0,2.6-0.6,2.6-2.2
		C218.2,101.1,217.3,100.2,215.7,100.2z"/>
	<path fill="#717B85" d="M229.1,113.3c0-6.1,0-9.3,0-15.4c3.8,0.3,5.8,0.3,9.6,1c0,1.3,0,1.9,0,3.2c-2.6-0.3-3.5-0.3-6.1-0.6
		c0,1.3,0,1.6,0,2.9c2.2,0.3,3.2,0.3,5.4,0.6c0,1.3,0,1.9,0,3.2c-2.2-0.3-3.2-0.3-5.4-0.6c0,1.3,0,1.6,0,2.9
		c2.6,0.3,3.5,0.3,6.1,0.6c0,1.3,0,1.9,0,3.2C234.9,113.9,233,113.6,229.1,113.3z"/>
	<g>
		<g display="inline">
			<g>
				<path fill="#717B85" d="M69.1,226.6v3.2h2.6v1.6h-2.6v4.8h-1.6V225H72v1.6H69.1z"/>
				<path fill="#717B85" d="M78.4,236.5c-1.9,0-3.2-2.6-3.2-5.8s1-5.8,3.2-5.8s3.2,2.6,3.2,5.8C81.6,234.2,80.3,236.5,78.4,236.5z
					 M78.4,226.6c-1,0-1.6,1.6-1.6,4.5s0.6,4.5,1.6,4.5s1.6-1.6,1.6-4.5S79.4,226.6,78.4,226.6z"/>
				<path fill="#717B85" d="M88,236.5c-1.9,0-3.2-2.6-3.2-5.8s1-5.8,3.2-5.8c2.2,0,3.2,2.6,3.2,5.8C91.2,234.2,89.9,236.5,88,236.5z
					 M88,226.6c-1,0-1.6,1.6-1.6,4.5s0.6,4.5,1.6,4.5s1.6-1.6,1.6-4.5S89,226.6,88,226.6z"/>
				<path fill="#717B85" d="M96.3,236.5c-0.6,0-1.3,0-1.6-0.3V225c0.3,0,1-0.3,1.6-0.3c2.9,0,4.2,2.2,4.2,5.8
					C100.5,234.2,99.2,236.5,96.3,236.5z M96.6,226.6h-0.3v8.6c0,0,0,0,0.3,0c1.3,0,2.2-1.6,2.2-4.5
					C98.9,228.2,97.9,226.6,96.6,226.6z"/>
				<path fill="#717B85" d="M110.4,232.6c-1,0-1.6-0.6-1.6-1.6s0.6-1.6,1.6-1.6s1.6,0.6,1.6,1.6S111.4,232.6,110.4,232.6z"/>
				<path fill="#717B85" d="M123.8,236.5c-1.9,0-3.5-1.9-3.5-5.8c0-3.5,1.6-5.8,3.5-5.8c0.6,0,1.3,0.3,1.6,0.6l-0.6,1.3
					c-0.3-0.3-0.6-0.3-1-0.3c-1,0-1.9,1.6-1.9,4.2c0,2.9,1,4.5,1.9,4.5c0.3,0,0.6-0.3,1-0.6l0.6,1.3
					C124.8,236.5,124.5,236.5,123.8,236.5z"/>
				<path fill="#717B85" d="M131.2,236.5c-2.2,0-3.2-2.6-3.2-5.8s1-5.8,3.2-5.8c2.2,0,3.2,2.6,3.2,5.8
					C134.4,234.2,133.4,236.5,131.2,236.5z M131.5,226.6c-1,0-1.6,1.6-1.6,4.5s0.6,4.5,1.6,4.5c1,0,1.6-1.6,1.6-4.5
					S132.2,226.6,131.5,226.6z"/>
				<path fill="#717B85" d="M143,236.5l-3.2-6.7v6.7h-1.6v-11.2h0.6l3.2,6.7v-6.4h1.9v11.2L143,236.5z"/>
				<path fill="#717B85" d="M152.6,236.5l-3.2-6.7v6.7h-1.6v-11.2h0.6l3.2,6.7v-6.4h1.9v11.2L152.6,236.5z"/>
				<path fill="#717B85" d="M157.4,236.5v-11.2h4.5v1.6H159v3.2h2.6v1.6H159v3.5h2.9v1.6C161.9,236.5,157.4,236.5,157.4,236.5z"/>
				<path fill="#717B85" d="M168.6,236.5c-1.9,0-3.5-1.9-3.5-5.8c0-3.5,1.6-5.8,3.5-5.8c0.6,0,1.3,0.3,1.6,0.6l-0.6,1.3
					c-0.3-0.3-0.6-0.3-1-0.3c-1,0-1.9,1.6-1.9,4.2c0,2.9,1,4.5,1.9,4.5c0.3,0,0.6-0.3,1-0.6l0.6,1.3
					C169.9,236.5,169.3,236.5,168.6,236.5z"/>
				<path fill="#717B85" d="M176.6,226.6v9.6H175v-9.6h-1.6V225h5.1v1.6H176.6z"/>
				<path fill="#717B85" d="M182.1,236.5v-11.2h1.6v11.2H182.1z"/>
				<path fill="#717B85" d="M190.4,236.5c-2.2,0-3.2-2.6-3.2-5.8s1-5.8,3.2-5.8c2.2,0,3.2,2.6,3.2,5.8
					C193.6,234.2,192.6,236.5,190.4,236.5z M190.4,226.6c-1,0-1.6,1.6-1.6,4.5s0.6,4.5,1.6,4.5c1,0,1.6-1.6,1.6-4.5
					S191.4,226.6,190.4,226.6z"/>
				<path fill="#717B85" d="M202.2,236.5l-3.2-6.7v6.7h-1.6v-11.2h0.6l3.2,6.7v-6.4h1.6v11.2L202.2,236.5z"/>
				<path fill="#717B85" d="M213.1,232.6c-1,0-1.9-0.6-1.9-1.6s0.6-1.6,1.9-1.6c1.3,0,1.9,0.6,1.9,1.6S214.1,232.6,213.1,232.6z"/>
				<path fill="#717B85" d="M227.5,236.5v-4.8H225v4.8h-1.6v-11.2h1.6v4.8h2.6v-4.8h1.6v11.2H227.5z"/>
				<path fill="#717B85" d="M235.8,236.5c-2.2,0-2.9-2.6-2.9-5.8s1-5.8,3.2-5.8s2.9,2.6,2.9,5.8C239,234.2,237.8,236.5,235.8,236.5z
					 M235.8,226.6c-1,0-1.3,1.6-1.3,4.5s0.6,4.5,1.3,4.5c1,0,1.3-1.6,1.3-4.5S236.8,226.6,235.8,226.6z"/>
				<path fill="#717B85" d="M244.5,232.6c-0.3,0-0.3,0-0.3,0v3.8h-1.6v-11.2c0.6,0,1,0,1.9,0c2.6,0,3.5,1.6,3.5,3.8
					C247.7,230.7,246.7,232.6,244.5,232.6z M244.5,226.6c-0.3,0-0.3,0-0.3,0v4.5c0.3,0,0.3,0,0.3,0c1,0,1.6-0.6,1.6-2.2
					C246.1,227.5,245.8,226.6,244.5,226.6z"/>
				<path fill="#717B85" d="M251.5,236.5v-11.2h4.5v1.6h-2.9v3.2h2.6v1.6h-2.6v3.5h2.9v1.6C256,236.5,251.5,236.5,251.5,236.5z"/>
			</g>
		</g>
	</g>
</g>
<g id="Layer_2">
	<g id="D7Gz0W_1_">
		
			<image overflow="visible" width="241" height="283" id="D7Gz0W" xlink:href="B31A1924A43DDC56.jpg"  transform="matrix(0.4395 0 0 0.4395 108 97.6206)">
		</image>
	</g>
</g>
</svg>
