<?xml version="1.0" encoding="utf-8"?>
<!-- Generator: Adobe Illustrator 18.0.0, SVG Export Plug-In . SVG Version: 6.00 Build 0)  -->
<!DOCTYPE svg PUBLIC "-//W3C//DTD SVG 1.1//EN" "http://www.w3.org/Graphics/SVG/1.1/DTD/svg11.dtd">
<svg version="1.1" id="Layer_1" xmlns="http://www.w3.org/2000/svg" xmlns:xlink="http://www.w3.org/1999/xlink" x="0px" y="0px"
	 viewBox="0 0 100 100" enable-background="new 0 0 100 100" xml:space="preserve">
<path fill="#717B85" d="M90.3,35l-0.1-0.1h-1.6c-2.2-2.5-5.2-4.7-8.9-6.6c-7.9-4.1-18.4-6.3-29.5-6.3s-21.5,2.2-29.5,6.3
	c-3.8,1.9-6.8,4.2-8.9,6.6h-1.6L10.1,35c-1.9,2.6-3.3,6-3.3,9.5c0,3.6,1.4,6.9,3.3,9.5l0.1,0.1h1.5c2.2,2.5,5.2,4.9,9.1,6.8
	c7.9,4,18.4,6.3,29.5,6.3s21.5-2.2,29.5-6.3c3.8-2,6.9-4.3,9.1-6.8h1.5l0.1-0.1c1.9-2.7,3.3-6,3.3-9.5C93.6,40.9,92.2,37.6,90.3,35z
	 M88.6,50v1.7l-0.1,0.1c-5.7,8.1-20.7,13.9-38.3,13.9c-17.8,0-32.8-5.8-38.5-14l-0.1-0.1v-1.7c-0.8-1.7-1.2-3.4-1.2-5.2
	c0-1.8,0.4-3.5,1.2-5.2v-1.7l0.1-0.1c5.6-8.2,20.7-14,38.5-14c17.6,0,32.6,5.7,38.3,13.9l0.1,0.1v1.7c0.9,1.7,1.4,3.5,1.4,5.4
	C90,46.5,89.5,48.3,88.6,50z"/>
<path fill="#717B85" d="M51.2,62.4c3.2-0.7,1.4-4.9,0.7-6c0,0-0.3-0.4-0.3,0s0.5,4.2-0.4,4.2c-0.4,0-0.8-4-0.8-4.2
	c0-0.2-0.3-0.2-0.3,0c0,0.2-0.5,4.2-0.8,4.2c-1,0-0.4-4.1-0.4-4.2c0-0.3-0.3,0-0.3,0c-0.7,1.1-2.5,5.3,0.7,6c0.2,0-0.3,0.8-0.6,3.7
	c1.1,0,2.1,0,3.1,0C51.5,63.3,50.9,62.4,51.2,62.4z"/>
<path fill="#717B85" d="M55,52c0.2-0.7,0.7-1.2,1.2-1.5c0.9-0.4,2.2-0.3,3.5,0.2l0.6,0.2l-0.2,0.6c0,0.2-0.1,0.3-0.1,0.5
	c-0.6,2-1.7,2.6-2.3,2.8c-0.7,0.2-1.3,0-1.9-0.3l-1-1C54.8,52.9,54.8,52.4,55,52L55,52z"/>
<path fill="#717B85" d="M56.3,53.8c0.8,0.7,2.5,0.5,3.2-2.5c-2.1-0.8-5.2,0-3.8,2C55.8,53.5,56.1,53.7,56.3,53.8z"/>
<path fill="#717B85" d="M40.8,55.6c-0.9,0-1.8-0.2-2.7-0.8l-0.5-0.3l0.2-0.5c0-0.1,0.8-1.7,2.8-1.8c0.5,0,1,0,1.8,0.3
	c0.5,0.2,1.1,0.5,1.3,1.1C43.5,54.7,42.1,55.6,40.8,55.6L40.8,55.6z"/>
<path fill="#717B85" d="M38.5,54.2c2.2,1.4,3.8,0.5,4.4-0.4c-0.2-0.2-0.5-0.5-0.8-0.6C39.4,52.1,38.5,54.2,38.5,54.2z"/>
<path fill="#717B85" d="M41.7,58.9c-0.6,0-1.4-0.1-2.3-0.3l-0.7-0.2l0-0.6c0.2-2.8,1.7-3.2,2.3-3.2c0.8,0,2,0.5,2.4,1.2
	c0.3,0.5,0.5,1.4,0.2,2.1C43.5,58.3,43,58.8,41.7,58.9L41.7,58.9z"/>
<path fill="#717B85" d="M42.5,55.8c-1.2-0.8-3-1.2-3.2,2.2c4.9,1.1,4.2-1.4,3.8-1.8C42.8,55.9,42.5,55.8,42.5,55.8z"/>
<path fill="#717B85" d="M46.5,55.8L46.3,56c-1.1-0.2-1.9,0-2.5,0.6c-0.7,0.7-1.1,1.5-0.9,3l0.1,0.5l0.5,0.1c0,0,1.5,0.3,2.6-0.5
	c0.7-0.5,1-1.3,1.1-2.4l0-0.5l0-0.7L46.5,55.8z"/>
<path fill="#717B85" d="M43.5,59.5c-0.2-1.7,0.2-3.4,2.5-3c0.2,0.1,0.2,0.2,0.3,0.5C46.3,59.7,44.7,59.6,43.5,59.5z"/>
<path fill="#717B85" d="M49.2,52.9c1.1-1.2,0.7-2.7,0.4-3.2c-0.6-0.9-1.8-1.3-3.5-1.3c-0.1,0-0.2,0-0.3,0l-0.7,0l0,0.6
	c-0.2,2,0.4,3,0.9,3.5c0.5,0.5,1,0.7,1.7,0.7c0.2,0,0.3,0,0.6-0.1C48.5,53.1,49.2,52.9,49.2,52.9z"/>
<path fill="#717B85" d="M48,52.4c-0.9,0.4-2.5-0.3-2.2-3.3c2.2-0.1,4,0.8,3,3C48.6,52.3,48.5,52.3,48,52.4z"/>
<path fill="#717B85" d="M46,51.5c-0.2-0.6-0.5-1.1-1-1.4c-0.8-0.5-1.9-0.5-3.2-0.1l-0.6,0.2l0.1,0.6c0,0.2,0,0.3,0.1,0.4
	c0.4,1.9,1.4,2.5,1.9,2.7c0.6,0.2,2-0.2,2.2-0.3c0.2-0.2,0.4-0.5,0.5-0.7C46.1,52.6,46.1,51.9,46,51.5L46,51.5z"/>
<path fill="#717B85" d="M44.6,53c-0.7,0.5-2.2,0.2-2.7-2.5c2-0.6,3.8-0.1,3.3,2.1C45.2,52.9,44.9,52.9,44.6,53z"/>
<path fill="#717B85" d="M48.5,52.7c-0.3-0.7-2.3-1-2.9-0.8c-0.9,0.3-1.5,1.2-1.7,2.5c0,0.1,0,0.2,0,0.2l0,0.5l0.6,0.1
	c1.8,0.4,2.9,0.1,3.4-0.2c0.5-0.3,0.7-0.7,0.8-1.2c0-0.2,0-0.2,0-0.4C48.5,53.2,48.7,52.9,48.5,52.7z"/>
<path fill="#717B85" d="M47.9,53.5c0.2,0.9-0.5,1.8-3.5,1.1c0.2-2,1.2-3,3.4-1.7C47.8,53.2,47.9,53.3,47.9,53.5z"/>
<path fill="#717B85" d="M56,53.2c0.4,0.5,0.7,1.1,0.8,1.6l0,0.5l-0.4,0.2c-1.8,1-2.8,0.4-3.4-0.3c-1-1.3-0.8-1.5-0.8-1.8
	c0.1-0.5,0.5-0.9,0.5-0.9C53,52.2,53.5,52,54,52C54.7,52,55.4,52.5,56,53.2L56,53.2z"/>
<path fill="#717B85" d="M53,53.5c0.5,1,1.2,2.5,3.1,1.4c-0.2-2-2-2.8-2.8-1.8C53,53.4,53,53.5,53,53.5z"/>
<path fill="#717B85" d="M57.6,54.6c0.8-1.2,2.2-1.4,2.8-1.3c1,0.2,1.8,1.1,2.2,2.5c0,0.1,0,0.2,0.1,0.2l0.2,0.5l-0.5,0.2
	c-1.7,0.8-2.8,0.6-3.4,0.3c-0.5-0.2-0.9-0.7-1.1-1.2c0-0.2,0-0.3-0.1-0.5C57.6,55.1,57.6,54.6,57.6,54.6z"/>
<path fill="#717B85" d="M58.4,55.3c-0.1,0.9,1,1.9,3.6,0.8c-0.5-1.9-1.9-3.1-3.6-1.5C58.4,54.8,58.4,55,58.4,55.3z"/>
<path fill="#717B85" d="M58.1,59.8c-0.7-0.2-1.3-0.8-1.8-1.6l-0.6-1.1c0,0,1.2-1.8,3.4-1.1c1.2,0.4,1.8,1.5,2.1,2.5l0.2,0.5
	l-0.4,0.3C61,59.2,59.6,60.3,58.1,59.8L58.1,59.8z"/>
<path fill="#717B85" d="M60.6,58.7c-0.6-1.6-1.8-2.9-3.7-1.5c0,0.2,0,0.5,0.1,0.8C58.4,60.4,60.6,58.7,60.6,58.7z"/>
<path fill="#717B85" d="M51.8,52.8c-0.7-0.5-0.2-2.2,0.5-2.8c0.5-0.5,1.5-1.2,3.1-1.2l0.6,0l0.1,0.5c0.2,1,0.1,2.9-2.4,3.5
	C53.5,52.8,52.7,53.2,51.8,52.8z"/>
<path fill="#717B85" d="M55.5,49.4c-2.6,0.1-3.5,1.5-3.1,2.8c0.3,0.1,0.4,0.1,0.9,0C56,51.6,55.5,49.4,55.5,49.4z"/>
<path fill="#717B85" d="M52.8,51c0-0.7-0.2-1.5-0.5-2.5L52,47.8l-0.7,0.1c-3,0.5-3.2,2.2-3.2,2.8c0,0.9,0.6,2,1.4,2.5
	c0.6,0.3,1.5,0.5,2.2,0C52.3,53,52.8,52.3,52.8,51L52.8,51z"/>
<path fill="#717B85" d="M49.4,52.2c-0.8-1.1-0.9-3.2,2.2-3.7c1.7,5.3-1.1,4.7-1.5,4.3C49.6,52.5,49.4,52.2,49.4,52.2z"/>
<path fill="#717B85" d="M56.6,60.7l-0.5,0c-1,0-1.7-0.2-2.1-0.6c-0.7-0.6-0.6-1.5-0.6-2.2l0.4-0.9c0,0,0.5-0.5,1.2-0.5
	c0.5,0,1,0.2,1.4,0.8c0.6,0.8,0.8,2.1,0.4,3L56.6,60.7L56.6,60.7z"/>
<path fill="#717B85" d="M54.1,57.8c0,1-0.2,2.3,2,2.2c0.5-1.1-0.2-3.2-1.3-2.8C54.2,57.5,54.1,57.8,54.1,57.8z"/>
<path fill="#717B85" d="M50,54.7c1.1-1,2.9-0.5,3.5,0c0.9,0.7,1.3,1.9,1.2,3.4c0,0.1,0,0.2,0,0.3L54.5,59l-0.7,0
	c-2.1,0-3.1-0.5-3.7-1.1c-0.5-0.5-0.7-1-0.6-1.7c0-0.2,0.1-0.3,0.2-0.6C49.8,55.4,49,55.6,50,54.7z"/>
<path fill="#717B85" d="M50.5,55.9c-0.5,0.9,0.2,2.4,3.3,2.3c0.3-2.2-0.6-4-3-3.1C50.7,55.5,50.7,55.6,50.5,55.9z"/>
<path fill="#717B85" d="M46.9,58.5L46.6,58c-0.7-1.2-0.8-2.3-0.4-3c0.8-1.2,2.9-0.9,3.8,0.2c0.3,0.4,0.4,0.8,0.2,1.2
	c-0.2,0.8-1.1,1.3-2.8,1.8L46.9,58.5L46.9,58.5z"/>
<path fill="#717B85" d="M48.3,55c-0.3-0.3-2.8-0.2-1.1,2.7c3.7-1.1,2-2.3,1.6-2.4C48.5,55,48.3,55,48.3,55z"/>
<path fill="#717B85" d="M55.2,52.2c0,0.2-0.2,0.5-0.6,0.5s-0.6-0.2-0.6-0.4c0-0.2,0.2-0.5,0.6-0.5C55,51.7,55.2,51.9,55.2,52.2z"/>
<g>
	<g>
		<g>
			<defs>
				<rect id="SVGID_1_" x="-13" y="-7.3" width="128" height="99.9"/>
			</defs>
			<clipPath id="SVGID_2_">
				<use xlink:href="#SVGID_1_"  overflow="visible"/>
			</clipPath>
		</g>
		<g>
			<defs>
				<rect id="SVGID_3_" x="-13" y="-7.3" width="128" height="99.9"/>
			</defs>
			<clipPath id="SVGID_4_">
				<use xlink:href="#SVGID_3_"  overflow="visible"/>
			</clipPath>
		</g>
		<g>
			<defs>
				<rect id="SVGID_5_" x="-13" y="-7.3" width="128" height="99.9"/>
			</defs>
			<clipPath id="SVGID_6_">
				<use xlink:href="#SVGID_5_"  overflow="visible"/>
			</clipPath>
		</g>
		<g>
			<defs>
				<rect id="SVGID_7_" x="-13" y="-7.3" width="128" height="99.9"/>
			</defs>
			<clipPath id="SVGID_8_">
				<use xlink:href="#SVGID_7_"  overflow="visible"/>
			</clipPath>
		</g>
		<g>
			<defs>
				<rect id="SVGID_9_" x="-13" y="-7.3" width="128" height="99.9"/>
			</defs>
			<clipPath id="SVGID_10_">
				<use xlink:href="#SVGID_9_"  overflow="visible"/>
			</clipPath>
		</g>
		<g>
			<defs>
				<rect id="SVGID_11_" x="-13" y="-7.3" width="128" height="99.9"/>
			</defs>
			<clipPath id="SVGID_12_">
				<use xlink:href="#SVGID_11_"  overflow="visible"/>
			</clipPath>
		</g>
		<g>
			<defs>
				<rect id="SVGID_13_" x="-13" y="-7.3" width="128" height="99.9"/>
			</defs>
			<clipPath id="SVGID_14_">
				<use xlink:href="#SVGID_13_"  overflow="visible"/>
			</clipPath>
		</g>
		<g>
			<defs>
				<rect id="SVGID_15_" x="-13" y="-7.3" width="128" height="99.9"/>
			</defs>
			<clipPath id="SVGID_16_">
				<use xlink:href="#SVGID_15_"  overflow="visible"/>
			</clipPath>
		</g>
		<g>
			<defs>
				<rect id="SVGID_17_" x="-13" y="-7.3" width="128" height="99.9"/>
			</defs>
			<clipPath id="SVGID_18_">
				<use xlink:href="#SVGID_17_"  overflow="visible"/>
			</clipPath>
		</g>
		<g>
			<defs>
				<rect id="SVGID_19_" x="-13" y="-7.3" width="128" height="99.9"/>
			</defs>
			<clipPath id="SVGID_20_">
				<use xlink:href="#SVGID_19_"  overflow="visible"/>
			</clipPath>
		</g>
		<g>
			<defs>
				<rect id="SVGID_21_" x="-13" y="-7.3" width="128" height="99.9"/>
			</defs>
			<clipPath id="SVGID_22_">
				<use xlink:href="#SVGID_21_"  overflow="visible"/>
			</clipPath>
		</g>
		<g>
			<defs>
				<rect id="SVGID_23_" x="-13" y="-7.3" width="128" height="99.9"/>
			</defs>
			<clipPath id="SVGID_24_">
				<use xlink:href="#SVGID_23_"  overflow="visible"/>
			</clipPath>
		</g>
		<g>
			<defs>
				<rect id="SVGID_25_" x="-13" y="-7.3" width="128" height="99.9"/>
			</defs>
			<clipPath id="SVGID_26_">
				<use xlink:href="#SVGID_25_"  overflow="visible"/>
			</clipPath>
		</g>
	</g>
</g>
<path fill="#717B85" d="M19.3,40.9c0,0.8,0,1.1,0,1.9c1.2-0.1,1.8-0.2,2.9-0.4c0,0.7,0,1.1,0,1.8c-1.2,0.2-1.8,0.2-2.9,0.4
	c0,1.2,0,1.9,0,3.1c-0.8,0.1-1.2,0.2-2,0.3c0-3.4,0-5.2,0-8.6c2.1-0.3,3.2-0.5,5.4-0.7c0,0.7,0,1.1,0,1.8
	C21.3,40.7,20.6,40.8,19.3,40.9z"/>
<path fill="#717B85" d="M27.8,46.8c-2.6,0.2-4.3-1.5-4.3-4c0-2.5,1.8-4.6,4.4-4.9c2.6-0.2,4.3,1.5,4.3,4
	C32.2,44.5,30.4,46.6,27.8,46.8z M27.8,39.8c-1.4,0.1-2.2,1.3-2.2,2.9s0.9,2.5,2.2,2.4s2.2-1.3,2.2-2.9C30,40.7,29.1,39.6,27.8,39.8
	z"/>
<path fill="#717B85" d="M35.9,46.2c-2.7,0.2-4.3-1.6-4.3-4.1c0-2.5,1.8-4.6,4.4-4.8c2.6-0.2,4.3,1.7,4.3,4.2
	C40.3,44,38.5,46,35.9,46.2z M35.9,39.1c-1.3,0.1-2.2,1.3-2.2,2.8c0,1.5,0.9,2.6,2.2,2.5c1.3-0.1,2.2-1.2,2.2-2.8
	C38.2,40.1,37.3,39,35.9,39.1z"/>
<path fill="#717B85" d="M44.2,45.7c-1,0-1.5,0-2.6,0c0-3.4,0-5,0-8.4c1-0.2,1.7-0.2,2.5-0.2c3.5-0.1,5.2,1.8,5.2,4.2
	C49.3,43.8,47.8,45.6,44.2,45.7z M44.4,38.8c-0.3,0-0.5,0-0.8,0.1c0,2,0,3,0,5c0.3,0,0.5,0,1,0c1.9,0,2.7-1.1,2.7-2.7
	C47.2,39.7,46.2,38.8,44.4,38.8z"/>
<path fill="#717B85" d="M53.7,45.7c-0.8,0-1.7-0.1-2.5-0.2c0-3.3,0-5,0-8.4c0.6-0.1,1.7-0.2,2.4-0.2c2.5,0,3.8,1.2,3.8,2.4
	c0,0.9-1.5,1.9-1.5,1.9c0,0.1,1.7,1.1,1.7,2C57.5,44.6,56.2,45.7,53.7,45.7z M54,38.7c-0.3,0-0.6,0-0.9,0.1c0,0.7,0,1.1,0,1.8
	c0.2,0,0.4,0,0.7,0c1,0,1.4-0.3,1.4-1C55.2,39.1,54.8,38.7,54,38.7z M53.8,41.9c-0.3,0-0.5,0-0.8,0c0,0.8,0,1.2,0,2
	c0.3,0,0.4,0.1,0.8,0.1c1,0,1.5-0.4,1.5-1C55.4,42.3,54.9,41.9,53.8,41.9z"/>
<path fill="#717B85" d="M64.4,46c-0.2-0.7-0.4-1-0.7-1.6c-1.2-0.1-1.8-0.1-3-0.1c-0.2,0.6-0.4,0.9-0.7,1.5c-0.8,0-1.2,0-2-0.1
	c1.6-3.4,2.4-5.1,4-8.5c0.1,0,0.2,0,0.3,0c1.6,3.5,2.4,5.3,4,8.9C65.7,46,65.2,46,64.4,46z M62.3,40.7c-0.3,0.8-0.5,1.2-0.8,2
	c0.7,0,1,0.1,1.7,0.1C62.8,42,62.7,41.5,62.3,40.7z"/>
<path fill="#717B85" d="M74.6,46.9c-2.1-2-3.1-3-5.1-5.1c0,1.8,0,2.7,0,4.5c-0.8,0-1.2-0.1-2-0.2c0-3.5,0-5.2,0-8.8
	c0.1,0,0.2,0,0.3,0c2,2,3.1,3,5.1,5c0-1.8,0-2.7,0-4.5c0.8,0.1,1.2,0.1,2,0.2c0,3.5,0,5.2,0,8.7C74.8,46.9,74.7,46.9,74.6,46.9z"/>
<path fill="#717B85" d="M82.2,47.6c-1.2-1.8-1.9-2.7-3.1-4.4c0,1.6,0,2.4,0,4c-0.8-0.1-1.2-0.2-2-0.2c0-3.4,0-5.2,0-8.6
	c0.8,0.1,1.2,0.1,2,0.2c0,1.5,0,2.2,0,3.7c1.2-1.3,1.8-2,3-3.3c0.9,0.1,1.4,0.2,2.3,0.3c-1.4,1.4-2.1,2.2-3.5,3.6c1.5,2,2.2,3,3.7,5
	C83.7,47.8,83.2,47.8,82.2,47.6z"/>
<path fill="#717B85" d="M28,31.9c0,0.4,0,0.6,0,1c0.6,0,1-0.1,1.6-0.1c0,0.4,0,0.6,0,1c-0.6,0-1,0.1-1.6,0.1c0,0.7,0,1,0,1.7
	c-0.4,0-0.6,0.1-1.1,0.1c0-1.9,0-2.8,0-4.8c1.2-0.1,1.8-0.2,3-0.3c0,0.4,0,0.6,0,1C29.1,31.8,28.7,31.8,28,31.9z"/>
<path fill="#717B85" d="M34.7,35.1c-0.3-0.6-0.5-0.9-0.8-1.5c-0.1,0-0.1,0-0.2,0c-0.2,0-0.2,0-0.4,0c0,0.6,0,0.9,0,1.5
	c-0.5,0-0.7,0.1-1.1,0.1c0-1.9,0-2.8,0-4.7c0.4-0.1,0.8-0.1,1.4-0.2c1.5-0.1,2,0.5,2,1.4c0,0.5-0.3,1.1-0.8,1.4
	c0.5,0.7,0.7,1,1.1,1.8C35.4,35,35.2,35,34.7,35.1z M33.7,31.4c-0.2,0-0.3,0-0.4,0.1c0,0.5,0,0.8,0,1.3c0.2,0,0.2,0,0.3,0
	c0.5,0,0.8-0.3,0.8-0.8C34.5,31.5,34.2,31.4,33.7,31.4z"/>
<path fill="#717B85" d="M38.1,34.9c0-1.9,0-2.9,0-4.8c1.2-0.1,1.8-0.1,3-0.1c0,0.4,0,0.6,0,1c-0.8,0-1.1,0-1.9,0.1
	c0,0.4,0,0.5,0,0.9c0.7,0,1,0,1.7-0.1c0,0.4,0,0.6,0,1c-0.7,0-1,0-1.7,0.1c0,0.4,0,0.5,0,0.9c0.8,0,1.1,0,1.9-0.1c0,0.4,0,0.6,0,1
	C39.9,34.8,39.3,34.8,38.1,34.9z"/>
<path fill="#717B85" d="M43.9,34.7c0-1.9,0-2.9,0-4.8c1.2,0,1.8,0,3-0.1c0,0.4,0,0.6,0,1c-0.8,0-1.1,0-1.9,0c0,0.4,0,0.5,0,0.9
	c0.7,0,1,0,1.7,0c0,0.4,0,0.6,0,1c-0.7,0-1,0-1.7,0c0,0.4,0,0.5,0,0.9c0.8,0,1.1,0,1.9,0c0,0.4,0,0.6,0,1
	C45.7,34.6,45.1,34.6,43.9,34.7z"/>
<path fill="#717B85" d="M50.5,34.6c-0.5,0-1.2-0.2-1.6-0.5c0.1-0.4,0.2-0.6,0.3-1c0.4,0.3,0.9,0.5,1.3,0.5c0.4,0,0.5-0.2,0.5-0.4
	s-0.1-0.4-0.8-0.7c-0.8-0.3-1.1-0.8-1.1-1.4c0-0.7,0.5-1.4,1.7-1.4c0.5,0,1,0.2,1.3,0.4c-0.1,0.4-0.2,0.6-0.3,1
	c-0.3-0.2-0.7-0.4-1-0.4c-0.4,0-0.5,0.2-0.5,0.4c0,0.3,0.2,0.4,0.8,0.6c0.9,0.4,1.2,0.8,1.2,1.4C52.2,33.9,51.7,34.6,50.5,34.6z"/>
<path fill="#717B85" d="M56.2,30.8c0,1.5,0,2.2,0,3.7c-0.4,0-0.7,0-1.1,0c0-1.5,0-2.2,0-3.7c-0.6,0-0.8,0-1.4,0c0-0.4,0-0.6,0-1
	c1.6,0,2.3,0,3.9,0.1c0,0.4,0,0.6,0,1C57.1,30.9,56.8,30.9,56.2,30.8z"/>
<path fill="#717B85" d="M61.4,34.8C60,34.8,59,33.7,59,32.3c0-1.4,1-2.4,2.4-2.4c1.5,0,2.4,1.2,2.4,2.6
	C63.8,33.9,62.8,34.9,61.4,34.8z M61.4,30.9c-0.8,0-1.2,0.6-1.2,1.4c0,0.9,0.5,1.5,1.2,1.5c0.8,0,1.2-0.6,1.2-1.4
	C62.7,31.6,62.2,31,61.4,30.9z"/>
<path fill="#717B85" d="M68.4,35.2c-0.3-0.7-0.5-1-0.8-1.6c-0.1,0-0.1,0-0.2,0c-0.2,0-0.2,0-0.4,0c0,0.6,0,0.9,0,1.5
	c-0.4,0-0.7,0-1.1-0.1c0-1.9,0-2.8,0-4.7c0.4,0,0.8,0,1.4,0c1.5,0.1,2.1,0.9,2.1,1.7c0,0.5-0.3,1-0.8,1.3c0.4,0.8,0.7,1.2,1.1,1.9
	C69.1,35.2,68.9,35.2,68.4,35.2z M67.4,31.3c-0.2,0-0.3,0-0.4,0c0,0.5,0,0.8,0,1.3c0.2,0,0.2,0,0.3,0c0.5,0,0.8-0.2,0.8-0.7
	C68.2,31.6,67.9,31.3,67.4,31.3z"/>
<path fill="#717B85" d="M71.6,35.4c0-1.9,0-2.9,0-4.8c1.2,0.1,1.8,0.1,3,0.3c0,0.4,0,0.6,0,1c-0.8-0.1-1.1-0.1-1.9-0.2
	c0,0.4,0,0.5,0,0.9c0.7,0.1,1,0.1,1.7,0.2c0,0.4,0,0.6,0,1c-0.7-0.1-1-0.1-1.7-0.2c0,0.4,0,0.5,0,0.9c0.8,0.1,1.1,0.1,1.9,0.2
	c0,0.4,0,0.6,0,1C73.4,35.6,72.8,35.5,71.6,35.4z"/>
<path fill="#717B85" d="M19.3,40.9c0,0.8,0,1.1,0,1.9c1.2-0.1,1.8-0.2,2.9-0.4c0,0.7,0,1.1,0,1.8c-1.2,0.2-1.8,0.2-2.9,0.4
	c0,1.2,0,1.9,0,3.1c-0.8,0.1-1.2,0.2-2,0.3c0-3.4,0-5.2,0-8.6c2.1-0.3,3.2-0.5,5.4-0.7c0,0.7,0,1.1,0,1.8
	C21.3,40.7,20.6,40.8,19.3,40.9z"/>
<path fill="#717B85" d="M27.8,46.8c-2.6,0.2-4.3-1.5-4.3-4c0-2.5,1.8-4.6,4.4-4.9c2.6-0.2,4.3,1.5,4.3,4
	C32.2,44.5,30.4,46.6,27.8,46.8z M27.8,39.8c-1.4,0.1-2.2,1.3-2.2,2.9s0.9,2.5,2.2,2.4s2.2-1.3,2.2-2.9C30,40.7,29.1,39.6,27.8,39.8
	z"/>
<path fill="#717B85" d="M35.9,46.2c-2.7,0.2-4.3-1.6-4.3-4.1c0-2.5,1.8-4.6,4.4-4.8c2.6-0.2,4.3,1.7,4.3,4.2
	C40.3,44,38.5,46,35.9,46.2z M35.9,39.1c-1.3,0.1-2.2,1.3-2.2,2.8c0,1.5,0.9,2.6,2.2,2.5c1.3-0.1,2.2-1.2,2.2-2.8
	C38.2,40.1,37.3,39,35.9,39.1z"/>
<path fill="#717B85" d="M44.2,45.7c-1,0-1.5,0-2.6,0c0-3.4,0-5,0-8.4c1-0.2,1.7-0.2,2.5-0.2c3.5-0.1,5.2,1.8,5.2,4.2
	C49.3,43.8,47.8,45.6,44.2,45.7z M44.4,38.8c-0.3,0-0.5,0-0.8,0.1c0,2,0,3,0,5c0.3,0,0.5,0,1,0c1.9,0,2.7-1.1,2.7-2.7
	C47.2,39.7,46.2,38.8,44.4,38.8z"/>
<path fill="#717B85" d="M53.7,45.7c-0.8,0-1.7-0.1-2.5-0.2c0-4.8,0-6.5,0-8.4c0.6-0.1,1.7-0.2,2.4-0.2c2.5,0,3.8,1.2,3.8,2.4
	c0,0.9-1.5,1.9-1.5,1.9c0,0.1,1.7,1.1,1.7,2C57.5,44.6,56.2,45.7,53.7,45.7z M54,38.7c-0.3,0-0.6,0-0.9,0.1c0,0.7,0,1.1,0,1.8
	c0.2,0,0.4,0,0.7,0c1,0,1.4-0.3,1.4-1C55.2,39.1,54.8,38.7,54,38.7z M53.8,41.9c-0.3,0-0.5,0-0.8,0c0,0.8,0,1.2,0,2
	c0.3,0,0.4,0.1,0.8,0.1c1,0,1.5-0.4,1.5-1C55.4,42.3,54.9,41.9,53.8,41.9z"/>
<path fill="#717B85" d="M64.4,46c-0.2-0.7-0.4-1-0.7-1.6c-1.2-0.1-1.8-0.1-3-0.1c-0.2,0.6-0.4,0.9-0.7,1.5c-0.8,0-1.2,0-2-0.1
	c1.6-3.4,2.4-5.1,4-8.5c0.1,0,0.2,0,0.3,0c1.6,3.5,2.4,5.3,4,8.9C65.7,46,65.2,46,64.4,46z M62.3,40.7c-0.3,0.8-0.5,1.2-0.8,2
	c0.7,0,1,0.1,1.7,0.1C62.8,42,62.7,41.5,62.3,40.7z"/>
<path fill="#717B85" d="M74.6,46.9c-2.1-2-3.1-3-5.1-5.1c0,1.8,0,2.7,0,4.5c-0.8,0-1.2-0.1-2-0.2c0-3.5,0-5.2,0-8.8
	c0.1,0,0.2,0,0.3,0c2,2,3.1,3,5.1,5c0-1.8,0-2.7,0-4.5c0.8,0.1,1.2,0.1,2,0.2c0,3.5,0,5.2,0,8.7C74.8,46.9,74.7,46.9,74.6,46.9z"/>
<path fill="#717B85" d="M82.2,47.6c-1.2-1.8-1.9-2.7-3.1-4.4c0,1.6,0,2.4,0,4c-0.8-0.1-1.2-0.2-2-0.2c0-3.4,0-5.2,0-8.6
	c0.8,0.1,1.2,0.1,2,0.2c0,1.5,0,2.2,0,3.7c1.2-1.3,1.8-2,3-3.3c0.9,0.1,1.4,0.2,2.3,0.3c-1.4,1.4-2.1,2.2-3.5,3.6c1.5,2,2.2,3,3.7,5
	C83.7,47.8,83.2,47.8,82.2,47.6z"/>
<path fill="#717B85" d="M28,31.9c0,0.4,0,0.6,0,1c0.6,0,1-0.1,1.6-0.1c0,0.4,0,0.6,0,1c-0.6,0-1,0.1-1.6,0.1c0,0.7,0,1,0,1.7
	c-0.4,0-0.6,0.1-1.1,0.1c0-1.9,0-2.8,0-4.8c1.2-0.1,1.8-0.2,3-0.3c0,0.4,0,0.6,0,1C29.1,31.8,28.7,31.8,28,31.9z"/>
<path fill="#717B85" d="M34.7,35.1c-0.3-0.6-0.5-0.9-0.8-1.5c-0.1,0-0.1,0-0.2,0c-0.2,0-0.2,0-0.4,0c0,0.6,0,0.9,0,1.5
	c-0.5,0-0.7,0.1-1.1,0.1c0-1.9,0-2.8,0-4.7c0.4-0.1,0.8-0.1,1.4-0.2c1.5-0.1,2,0.5,2,1.4c0,0.5-0.3,1.1-0.8,1.4
	c0.5,0.7,0.7,1,1.1,1.8C35.4,35,35.2,35,34.7,35.1z M33.7,31.4c-0.2,0-0.3,0-0.4,0.1c0,0.5,0,0.8,0,1.3c0.2,0,0.2,0,0.3,0
	c0.5,0,0.8-0.3,0.8-0.8C34.5,31.5,34.2,31.4,33.7,31.4z"/>
<path fill="#717B85" d="M38.1,34.9c0-1.9,0-2.9,0-4.8c1.2-0.1,1.8-0.1,3-0.1c0,0.4,0,0.6,0,1c-0.8,0-1.1,0-1.9,0.1
	c0,0.4,0,0.5,0,0.9c0.7,0,1,0,1.7-0.1c0,0.4,0,0.6,0,1c-0.7,0-1,0-1.7,0.1c0,0.4,0,0.5,0,0.9c0.8,0,1.1,0,1.9-0.1c0,0.4,0,0.6,0,1
	C39.9,34.8,39.3,34.8,38.1,34.9z"/>
<path fill="#717B85" d="M43.9,34.7c0-1.9,0-2.9,0-4.8c1.2,0,1.8,0,3-0.1c0,0.4,0,0.6,0,1c-0.8,0-1.1,0-1.9,0c0,0.4,0,0.5,0,0.9
	c0.7,0,1,0,1.7,0c0,0.4,0,0.6,0,1c-0.7,0-1,0-1.7,0c0,0.4,0,0.5,0,0.9c0.8,0,1.1,0,1.9,0c0,0.4,0,0.6,0,1
	C45.7,34.6,45.1,34.6,43.9,34.7z"/>
<path fill="#717B85" d="M50.5,34.6c-0.5,0-1.2-0.2-1.6-0.5c0.1-0.4,0.2-0.6,0.3-1c0.4,0.3,0.9,0.5,1.3,0.5c0.4,0,0.5-0.2,0.5-0.4
	s-0.1-0.4-0.8-0.7c-0.8-0.3-1.1-0.8-1.1-1.4c0-0.7,0.5-1.4,1.7-1.4c0.5,0,1,0.2,1.3,0.4c-0.1,0.4-0.2,0.6-0.3,1
	c-0.3-0.2-0.7-0.4-1-0.4c-0.4,0-0.5,0.2-0.5,0.4c0,0.3,0.2,0.4,0.8,0.6c0.9,0.4,1.2,0.8,1.2,1.4C52.2,33.9,51.7,34.6,50.5,34.6z"/>
<path fill="#717B85" d="M56.2,30.8c0,1.5,0,2.2,0,3.7c-0.4,0-0.7,0-1.1,0c0-1.5,0-2.2,0-3.7c-0.6,0-0.8,0-1.4,0c0-0.4,0-0.6,0-1
	c1.6,0,2.3,0,3.9,0.1c0,0.4,0,0.6,0,1C57.1,30.9,56.8,30.9,56.2,30.8z"/>
<path fill="#717B85" d="M61.4,34.8C60,34.8,59,33.7,59,32.3c0-1.4,1-2.4,2.4-2.4c1.5,0,2.4,1.2,2.4,2.6
	C63.8,33.9,62.8,34.9,61.4,34.8z M61.4,30.9c-0.8,0-1.2,0.6-1.2,1.4c0,0.9,0.5,1.5,1.2,1.5c0.8,0,1.2-0.6,1.2-1.4
	C62.7,31.6,62.2,31,61.4,30.9z"/>
<path fill="#717B85" d="M68.4,35.2c-0.3-0.7-0.5-1-0.8-1.6c-0.1,0-0.1,0-0.2,0c-0.2,0-0.2,0-0.4,0c0,0.6,0,0.9,0,1.5
	c-0.4,0-0.7,0-1.1-0.1c0-1.9,0-2.8,0-4.7c0.4,0,0.8,0,1.4,0c1.5,0.1,2.1,0.9,2.1,1.7c0,0.5-0.3,1-0.8,1.3c0.4,0.8,0.7,1.2,1.1,1.9
	C69.1,35.2,68.9,35.2,68.4,35.2z M67.4,31.3c-0.2,0-0.3,0-0.4,0c0,0.5,0,0.8,0,1.3c0.2,0,0.2,0,0.3,0c0.5,0,0.8-0.2,0.8-0.7
	C68.2,31.6,67.9,31.3,67.4,31.3z"/>
<path fill="#717B85" d="M71.6,35.4c0-1.9,0-2.9,0-4.8c1.2,0.1,1.8,0.1,3,0.3c0,0.4,0,0.6,0,1c-0.8-0.1-1.1-0.1-1.9-0.2
	c0,0.4,0,0.5,0,0.9c0.7,0.1,1,0.1,1.7,0.2c0,0.4,0,0.6,0,1c-0.7-0.1-1-0.1-1.7-0.2c0,0.4,0,0.5,0,0.9c0.8,0.1,1.1,0.1,1.9,0.2
	c0,0.4,0,0.6,0,1C73.4,35.6,72.8,35.5,71.6,35.4z"/>
<g>
	<g>
		<g>
			<path fill="#717B85" d="M21.6,70.8v1h0.8v0.5h-0.8v1.5h-0.5v-3.5h1.4v0.5C22.5,70.8,21.6,70.8,21.6,70.8z"/>
			<path fill="#717B85" d="M24.5,73.9c-0.6,0-1-0.8-1-1.8s0.3-1.8,1-1.8s1,0.8,1,1.8C25.5,73.2,25.1,73.9,24.5,73.9z M24.5,70.8
				c-0.3,0-0.5,0.5-0.5,1.4s0.2,1.4,0.5,1.4c0.3,0,0.5-0.5,0.5-1.4C25,71.3,24.8,70.8,24.5,70.8z"/>
			<path fill="#717B85" d="M27.5,73.9c-0.6,0-1-0.8-1-1.8s0.3-1.8,1-1.8s1,0.8,1,1.8C28.5,73.2,28.1,73.9,27.5,73.9z M27.5,70.8
				c-0.3,0-0.5,0.5-0.5,1.4s0.2,1.4,0.5,1.4c0.3,0,0.5-0.5,0.5-1.4C28,71.3,27.8,70.8,27.5,70.8z"/>
			<path fill="#717B85" d="M30.1,73.9c-0.2,0-0.4,0-0.5-0.1v-3.5c0.1,0,0.3-0.1,0.5-0.1c0.9,0,1.3,0.7,1.3,1.8
				C31.4,73.2,31,73.9,30.1,73.9z M30.2,70.8c0,0-0.1,0-0.1,0v2.7c0,0,0,0,0.1,0c0.4,0,0.7-0.5,0.7-1.4
				C30.9,71.3,30.6,70.8,30.2,70.8z"/>
			<path fill="#717B85" d="M34.5,72.7c-0.3,0-0.5-0.2-0.5-0.5s0.2-0.5,0.5-0.5s0.5,0.2,0.5,0.5S34.8,72.7,34.5,72.7z"/>
			<path fill="#717B85" d="M38.7,73.9c-0.6,0-1.1-0.6-1.1-1.8c0-1.1,0.5-1.8,1.1-1.8c0.2,0,0.4,0.1,0.5,0.2L39,70.9
				c-0.1-0.1-0.2-0.1-0.3-0.1c-0.3,0-0.6,0.5-0.6,1.3c0,0.9,0.3,1.4,0.6,1.4c0.1,0,0.2-0.1,0.3-0.2l0.2,0.4
				C39,73.9,38.9,73.9,38.7,73.9z"/>
			<path fill="#717B85" d="M41,73.9c-0.7,0-1-0.8-1-1.8s0.3-1.8,1-1.8c0.7,0,1,0.8,1,1.8C42,73.2,41.7,73.9,41,73.9z M41.1,70.8
				c-0.3,0-0.5,0.5-0.5,1.4s0.2,1.4,0.5,1.4c0.3,0,0.5-0.5,0.5-1.4S41.3,70.8,41.1,70.8z"/>
			<path fill="#717B85" d="M44.7,73.9l-1-2.1v2.1h-0.5v-3.5h0.2l1,2.1v-2H45v3.5L44.7,73.9z"/>
			<path fill="#717B85" d="M47.7,73.9l-1-2.1v2.1h-0.5v-3.5h0.2l1,2.1v-2H48v3.5L47.7,73.9z"/>
			<path fill="#717B85" d="M49.2,73.9v-3.5h1.4v0.5h-0.9v1h0.8v0.5h-0.8v1.1h0.9v0.5C50.6,73.9,49.2,73.9,49.2,73.9z"/>
			<path fill="#717B85" d="M52.7,73.9c-0.6,0-1.1-0.6-1.1-1.8c0-1.1,0.5-1.8,1.1-1.8c0.2,0,0.4,0.1,0.5,0.2l-0.2,0.4
				c-0.1-0.1-0.2-0.1-0.3-0.1c-0.3,0-0.6,0.5-0.6,1.3c0,0.9,0.3,1.4,0.6,1.4c0.1,0,0.2-0.1,0.3-0.2l0.2,0.4
				C53.1,73.9,52.9,73.9,52.7,73.9z"/>
			<path fill="#717B85" d="M55.2,70.8v3h-0.5v-3h-0.5v-0.5h1.6v0.5H55.2z"/>
			<path fill="#717B85" d="M56.9,73.9v-3.5h0.5v3.5H56.9z"/>
			<path fill="#717B85" d="M59.5,73.9c-0.7,0-1-0.8-1-1.8s0.3-1.8,1-1.8c0.7,0,1,0.8,1,1.8C60.5,73.2,60.2,73.9,59.5,73.9z
				 M59.5,70.8c-0.3,0-0.5,0.5-0.5,1.4s0.2,1.4,0.5,1.4c0.3,0,0.5-0.5,0.5-1.4C60,71.3,59.8,70.8,59.5,70.8z"/>
			<path fill="#717B85" d="M63.2,73.9l-1-2.1v2.1h-0.5v-3.5h0.2l1,2.1v-2h0.5v3.5L63.2,73.9z"/>
			<path fill="#717B85" d="M66.6,72.7c-0.3,0-0.6-0.2-0.6-0.5s0.2-0.5,0.6-0.5s0.6,0.2,0.6,0.5S66.9,72.7,66.6,72.7z"/>
			<path fill="#717B85" d="M71.1,73.9v-1.5h-0.8v1.5h-0.5v-3.5h0.5v1.5h0.8v-1.5h0.5v3.5H71.1z"/>
			<path fill="#717B85" d="M73.7,73.9c-0.7,0-0.9-0.8-0.9-1.8s0.3-1.8,1-1.8s0.9,0.8,0.9,1.8C74.7,73.2,74.3,73.9,73.7,73.9z
				 M73.7,70.8c-0.3,0-0.4,0.5-0.4,1.4s0.2,1.4,0.4,1.4c0.3,0,0.4-0.5,0.4-1.4S74,70.8,73.7,70.8z"/>
			<path fill="#717B85" d="M76.4,72.7c-0.1,0-0.1,0-0.1,0v1.2h-0.5v-3.5c0.2,0,0.3,0,0.6,0c0.8,0,1.1,0.5,1.1,1.2
				C77.4,72.1,77.1,72.7,76.4,72.7z M76.4,70.8c-0.1,0-0.1,0-0.1,0v1.4c0.1,0,0.1,0,0.1,0c0.3,0,0.5-0.2,0.5-0.7
				C76.9,71.1,76.8,70.8,76.4,70.8z"/>
			<path fill="#717B85" d="M78.6,73.9v-3.5H80v0.5h-0.9v1h0.8v0.5h-0.8v1.1H80v0.5C80,73.9,78.6,73.9,78.6,73.9z"/>
		</g>
	</g>
</g>
</svg>
