<?xml version="1.0" encoding="utf-8"?>
<!-- Generator: Adobe Illustrator 18.0.0, SVG Export Plug-In . SVG Version: 6.00 Build 0)  -->
<!DOCTYPE svg PUBLIC "-//W3C//DTD SVG 1.1//EN" "http://www.w3.org/Graphics/SVG/1.1/DTD/svg11.dtd">
<svg version="1.1" id="Layer_1" xmlns="http://www.w3.org/2000/svg" xmlns:xlink="http://www.w3.org/1999/xlink" x="0px" y="0px"
	 viewBox="0 0 400 300" enable-background="new 0 0 400 300" xml:space="preserve">
<path fill="#878787" stroke="#878787" stroke-miterlimit="10" d="M361.2,89.8l-0.3-0.4h-6.5c-8.6-9.9-20.7-18.9-35.7-26.6
	C287,46.6,245.2,37.7,200.8,37.7c-44.4,0-86.2,8.9-117.9,25.1c-15,7.7-27,16.7-35.7,26.6h-6.6l-0.3,0.4
	c-7.6,10.6-13.1,23.8-13.1,38.1c0,14.3,5.5,27.5,13.1,38.1l0.3,0.4h6c8.7,10.2,20.9,19.5,36.3,27.3c31.7,16.2,73.5,25.1,117.9,25.1
	c44.4,0,86.2-8.9,117.9-25.1c15.4-7.9,27.6-17.1,36.3-27.3h5.9l0.3-0.4c7.6-10.6,13.1-23.8,13.1-38.1
	C374.3,113.6,368.8,100.5,361.2,89.8z M354.4,150v6.6l-0.2,0.3c-22.8,32.6-82.8,55.5-153.3,55.6c-71,0-131.4-23.3-153.8-56.2
	l-0.2-0.3v-6.8c-3.3-6.7-5-13.6-5-20.8c0-7.1,1.7-14.1,5-20.8v-6.8l0.2-0.3c22.4-33,82.8-56.2,153.8-56.2
	c70.5,0,130.5,22.9,153.3,55.6l0.2,0.3v6.6c3.6,6.9,5.5,14.2,5.5,21.7C359.9,135.8,358,143.1,354.4,150z"/>
<path fill="#878787" stroke="#878787" stroke-miterlimit="10" d="M204.7,199.5c12.8-2.8,5.7-19.6,2.9-23.8c0,0-1.1-1.5-1.1,0
	c0,1.5,1.9,16.7-1.7,16.8c-1.7,0-3.2-16-3.3-16.8c-0.2-0.8-1.1-0.8-1.2,0c-0.2,0.8-2,16.6-3.4,16.7c-4,0.2-1.5-16.3-1.5-16.7
	c0-1.3-1.1,0-1.1,0c-2.9,4.3-10.1,21.3,2.9,23.8c0.6,0.1-1.3,3.4-2.4,14.6c4.3,0,8.4,0,12.4,0C206,203.3,203.5,199.7,204.7,199.5z"
	/>
<path fill="#878787" stroke="#878787" stroke-miterlimit="10" d="M219.9,158c0.8-2.6,2.6-4.7,5-5.8c3.6-1.7,8.6-1.4,14.1,0.7l2.4,1
	l-0.6,2.4c-0.2,0.6-0.3,1.3-0.5,1.9c-2.5,8.1-6.9,10.4-9.3,11.1c-2.6,0.7-5.4,0.2-7.5-1.3l-4.1-4C219.2,161.6,219.4,159.7,219.9,158
	L219.9,158z"/>
<path fill="#878787" stroke="#878787" stroke-miterlimit="10" d="M225.3,165.4c3,2.6,9.8,1.8,12.6-9.8c-8.4-3.3-20.9-0.2-15.3,7.9
	C223.3,164,224.3,164.7,225.3,165.4z"/>
<path fill="#878787" stroke="#878787" stroke-miterlimit="10" d="M163,172.4c-3.5,0.1-7.1-1-10.7-3.3l-1.9-1.2l0.9-2
	c0.1-0.3,3.1-6.8,11-7c2.2-0.1,3.8,0.1,7,1.3c2,0.8,4.4,2.1,5.3,4.3C174.1,168.9,168.3,172.3,163,172.4L163,172.4z"/>
<path fill="#878787" stroke="#878787" stroke-miterlimit="10" d="M153.9,166.9c8.6,5.6,15,1.9,17.5-1.7c-0.7-0.8-1.9-2-3.1-2.5
	C157.6,158.5,153.9,166.9,153.9,166.9z"/>
<path fill="#878787" stroke="#878787" stroke-miterlimit="10" d="M166.7,185.5c-2.5,0.1-5.6-0.3-9.3-1.2l-2.7-0.6l0.2-2.5
	c0.7-11.3,6.8-12.7,9.4-12.8c3.2-0.1,7.8,1.8,9.7,4.6c1.4,2.1,2.2,5.5,0.9,8.4C174,183.2,171.9,185.4,166.7,185.5L166.7,185.5z"/>
<path fill="#878787" stroke="#878787" stroke-miterlimit="10" d="M170,173c-4.9-3.1-12-4.6-12.8,8.9c19.5,4.5,16.8-5.5,15.3-7
	C171.2,173.7,170,173,170,173z"/>
<path fill="#878787" stroke="#878787" stroke-miterlimit="10" d="M185.8,173.3l-0.6,0.8c-4.4-0.7-7.7,0-10.2,2.3
	c-2.9,2.6-4.4,6.1-3.6,11.8l0.3,1.9l1.9,0.4c0.2,0.1,6.1,1.2,10.4-2.1c2.8-2.1,4.2-5.4,4.3-9.7l0.1-2l0.1-2.9L185.8,173.3z"/>
<path fill="#878787" stroke="#878787" stroke-miterlimit="10" d="M174.2,187.8c-1-6.9,1-13.6,10.2-12c0.6,0.4,0.9,0.6,1.1,1.8
	C185.3,188.6,178.7,188.3,174.2,187.8z"/>
<path fill="#878787" stroke="#878787" stroke-miterlimit="10" d="M196.6,161.6c4.3-4.9,2.9-10.7,1.5-12.8c-2.4-3.5-7.3-5.3-13.8-5.2
	c-0.4,0-0.7,0-1.1,0l-2.6,0.1l-0.2,2.5c-0.7,7.8,1.6,11.8,3.6,13.9c1.8,1.8,4.1,2.8,6.6,2.7c0.8,0,1.3-0.2,2.5-0.4
	C194.2,162.3,196.6,161.6,196.6,161.6z"/>
<path fill="#878787" stroke="#878787" stroke-miterlimit="10" d="M192.2,159.7c-3.7,1.5-9.8-1.3-8.8-13.1c9-0.5,16.1,3.3,11.9,12.1
	C194.3,159.1,194,159.2,192.2,159.7z"/>
<path fill="#878787" stroke="#878787" stroke-miterlimit="10" d="M184,155.9c-0.6-2.5-2-4.4-4.2-5.6c-3.2-1.8-7.7-1.9-12.9-0.4
	l-2.3,0.7l0.4,2.3c0.1,0.6,0.2,1.2,0.3,1.7c1.7,7.5,5.5,10,7.7,10.8c2.4,0.9,8.2-0.6,9-1.2c0.8-0.6,1.6-1.8,1.9-2.8
	C184.3,160.3,184.3,157.5,184,155.9L184,155.9z"/>
<path fill="#878787" stroke="#878787" stroke-miterlimit="10" d="M178.5,162.2c-2.9,2.1-9,0.9-10.8-9.8c7.9-2.4,15.1-0.5,13.4,8.3
	C180.8,161.5,179.6,161.5,178.5,162.2z"/>
<path fill="#878787" stroke="#878787" stroke-miterlimit="10" d="M194,160.6c-1.4-2.6-9.4-4.1-11.6-3.3c-3.7,1.4-6.1,4.9-6.9,10
	c0,0.3-0.1,0.6-0.1,0.9l-0.2,2l2.3,0.5c7.3,1.6,11.5,0.5,13.7-0.8c2-1.1,2.7-2.7,3-4.6c0.1-0.7,0.1-0.8,0.1-1.7
	C194.2,162.6,194.6,161.7,194,160.6z"/>
<path fill="#878787" stroke="#878787" stroke-miterlimit="10" d="M191.7,164c1,3.6-1.8,7.3-14.1,4.4c0.9-8.2,4.8-12.1,13.5-6.9
	C191.2,162.6,191.5,163.2,191.7,164z"/>
<path fill="#878787" stroke="#878787" stroke-miterlimit="10" d="M224.2,162.8c1.7,2.1,2.8,4.4,3.1,6.5l0.2,1.8l-1.6,0.9
	c-7,4-11.2,1.6-13.5-1.1c-3.8-5.2-3.4-5.9-3.2-7.2c0.3-2,1.8-3.5,1.8-3.5c1.2-1.4,2.9-2.2,4.8-2.2
	C218.6,158.2,221.7,159.9,224.2,162.8L224.2,162.8z"/>
<path fill="#878787" stroke="#878787" stroke-miterlimit="10" d="M211.9,164.2c2.2,4,4.7,9.9,12.5,5.5c-1-7.9-8.2-11-11.3-7.3
	C212,163.5,211.9,164.2,211.9,164.2z"/>
<path fill="#878787" stroke="#878787" stroke-miterlimit="10" d="M230.4,168.3c3.2-5,8.8-5.7,11.1-5.1c3.9,1,7,4.5,8.7,9.9
	c0.1,0.3,0.2,0.6,0.3,0.9l0.6,2.2l-2.2,0.9c-6.8,3-11.2,2.3-13.6,1.3c-2.2-0.9-3.7-2.6-4.4-4.6c-0.2-0.7-0.2-1.1-0.3-2.2
	C230.5,170.5,230.4,168.3,230.4,168.3z"/>
<path fill="#878787" stroke="#878787" stroke-miterlimit="10" d="M233.5,171.4c-0.3,3.5,4.1,7.7,14.4,3.3
	c-2.2-7.6-7.7-12.4-14.5-6.2C233.5,169.3,233.6,169.8,233.5,171.4z"/>
<path fill="#878787" stroke="#878787" stroke-miterlimit="10" d="M232.4,189.1c-2.8-1-5.2-3.1-7-6.3l-2.5-4.3c0,0,5-7.2,13.7-4.5
	c4.6,1.5,7.1,6.2,8.5,9.8l0.7,1.8l-1.5,1.2C244,187,238.5,191.2,232.4,189.1L232.4,189.1z"/>
<path fill="#878787" stroke="#878787" stroke-miterlimit="10" d="M242.4,184.7c-2.4-6.5-7.4-11.6-14.9-6.2c-0.1,1,0,1.9,0.3,3
	C233.7,191.6,242.4,184.7,242.4,184.7z"/>
<path fill="#878787" stroke="#878787" stroke-miterlimit="10" d="M207.4,161c-2.6-2.1-0.6-8.8,1.9-11.3c2-2.1,5.8-4.6,12.4-4.8
	l2.3-0.1l0.5,2.1c1,4,0.5,11.5-9.5,14.2C214.2,161.4,210.7,162.9,207.4,161z"/>
<path fill="#878787" stroke="#878787" stroke-miterlimit="10" d="M221.8,147.6c-10.4,0.3-13.9,5.8-12.5,11.3
	c1.2,0.4,1.5,0.4,3.5,0.2C224,156.4,221.8,147.6,221.8,147.6z"/>
<path fill="#878787" stroke="#878787" stroke-miterlimit="10" d="M211,153.8c-0.1-2.7-0.8-5.9-2-9.9l-0.9-2.8l-2.6,0.4
	c-11.8,1.9-12.8,8.6-12.6,11.4c0.2,3.5,2.5,8.2,5.7,9.9c2.3,1.3,6,1.8,8.9,0.1C209.2,161.9,211.3,159.4,211,153.8L211,153.8z"/>
<path fill="#878787" stroke="#878787" stroke-miterlimit="10" d="M197.7,158.7c-3.3-4.3-3.7-12.6,8.8-14.7
	c6.6,21.2-4.3,18.6-6.1,17.1C198.4,160.1,197.7,158.7,197.7,158.7z"/>
<path fill="#878787" stroke="#878787" stroke-miterlimit="10" d="M226.3,192.8l-1.8,0.1c-3.9,0.1-6.6-0.7-8.5-2.5
	c-2.6-2.5-2.4-5.9-2.3-8.7l1.6-3.6c0,0,2.2-1.9,4.7-1.9c2.1-0.1,4.1,1,5.5,3c2.3,3.2,3,8.5,1.5,12L226.3,192.8L226.3,192.8z"/>
<path fill="#878787" stroke="#878787" stroke-miterlimit="10" d="M216.5,181.2c-0.2,4.2-0.8,9.2,7.9,9c1.9-4.4-0.9-12.8-5.4-11.1
	C216.9,180.2,216.5,181.2,216.5,181.2z"/>
<path fill="#878787" stroke="#878787" stroke-miterlimit="10" d="M200,168.6c4.5-4.2,11.5-1.9,14-0.1c3.6,2.6,5.2,7.5,4.6,13.7
	c0,0.4-0.1,0.7-0.1,1.1l-0.3,2.5l-2.7,0.1c-8.4,0.2-12.5-2.2-14.6-4.3c-1.8-1.9-2.7-4.2-2.5-6.6c0.1-0.8,0.3-1.2,0.7-2.4
	C199.3,171.5,195.8,172.5,200,168.6z"/>
<path fill="#878787" stroke="#878787" stroke-miterlimit="10" d="M202,173.6c-1.9,3.5,0.7,9.6,13.3,9.3c1.2-8.8-2.3-15.9-12.1-12.3
	C202.7,171.8,202.7,172.3,202,173.6z"/>
<path fill="#878787" stroke="#878787" stroke-miterlimit="10" d="M187.6,183.8l-1.1-2c-2.9-5-3.4-9.1-1.5-12
	c3.1-4.7,11.6-3.5,15,0.9c1.2,1.5,1.6,3.3,1,5c-1,3-4.5,5.3-11.2,7.4L187.6,183.8L187.6,183.8z"/>
<path fill="#878787" stroke="#878787" stroke-miterlimit="10" d="M193.4,169.9c-1.4-1.1-11-0.9-4.4,10.6c14.8-4.5,8.2-9.2,6.5-9.6
	C193.9,170.1,193.4,169.9,193.4,169.9z"/>
<path fill="#878787" stroke="#878787" stroke-miterlimit="10" d="M221,158.7c0,1-1,1.8-2.3,1.8c-1.3,0-2.3-0.7-2.4-1.7
	c0-1,1-1.8,2.3-1.8C219.9,156.9,221,157.7,221,158.7z"/>
<g>
	<g>
		<defs>
			<rect id="SVGID_1_" x="-51.9" y="-79.4" width="511.9" height="399.6"/>
		</defs>
		<clipPath id="SVGID_2_">
			<use xlink:href="#SVGID_1_"  overflow="visible"/>
		</clipPath>
		<g clip-path="url(#SVGID_2_)">
			<defs>
				<rect id="SVGID_3_" x="-46" y="-844.5" width="133" height="90.5"/>
			</defs>
			<clipPath id="SVGID_4_">
				<use xlink:href="#SVGID_3_"  overflow="visible"/>
			</clipPath>
		</g>
		<g clip-path="url(#SVGID_2_)">
			<defs>
				<rect id="SVGID_5_" x="29.5" y="-691.7" width="133" height="90.5"/>
			</defs>
			<clipPath id="SVGID_6_">
				<use xlink:href="#SVGID_5_"  overflow="visible"/>
			</clipPath>
		</g>
		<g clip-path="url(#SVGID_2_)">
			<defs>
				<rect id="SVGID_7_" x="239.8" y="-691.7" width="133" height="90.5"/>
			</defs>
			<clipPath id="SVGID_8_">
				<use xlink:href="#SVGID_7_"  overflow="visible"/>
			</clipPath>
		</g>
		<g clip-path="url(#SVGID_2_)">
			<defs>
				<rect id="SVGID_9_" x="139.8" y="-844.5" width="133" height="90.5"/>
			</defs>
			<clipPath id="SVGID_10_">
				<use xlink:href="#SVGID_9_"  overflow="visible"/>
			</clipPath>
		</g>
		<g clip-path="url(#SVGID_2_)">
			<defs>
				<rect id="SVGID_11_" x="325.7" y="-844.5" width="133" height="90.5"/>
			</defs>
			<clipPath id="SVGID_12_">
				<use xlink:href="#SVGID_11_"  overflow="visible"/>
			</clipPath>
		</g>
		<g clip-path="url(#SVGID_2_)">
			<defs>
				<rect id="SVGID_13_" x="-44.7" y="-532.4" width="133" height="90.5"/>
			</defs>
			<clipPath id="SVGID_14_">
				<use xlink:href="#SVGID_13_"  overflow="visible"/>
			</clipPath>
		</g>
		<g clip-path="url(#SVGID_2_)">
			<defs>
				<rect id="SVGID_15_" x="46.9" y="-375.4" width="133" height="90.5"/>
			</defs>
			<clipPath id="SVGID_16_">
				<use xlink:href="#SVGID_15_"  overflow="visible"/>
			</clipPath>
		</g>
		<g clip-path="url(#SVGID_2_)">
			<defs>
				<rect id="SVGID_17_" x="257.2" y="-375.4" width="133" height="90.5"/>
			</defs>
			<clipPath id="SVGID_18_">
				<use xlink:href="#SVGID_17_"  overflow="visible"/>
			</clipPath>
		</g>
		<g clip-path="url(#SVGID_2_)">
			<defs>
				<rect id="SVGID_19_" x="141.1" y="-532.4" width="133" height="90.5"/>
			</defs>
			<clipPath id="SVGID_20_">
				<use xlink:href="#SVGID_19_"  overflow="visible"/>
			</clipPath>
		</g>
		<g clip-path="url(#SVGID_2_)">
			<defs>
				<rect id="SVGID_21_" x="326.9" y="-532.4" width="133" height="90.5"/>
			</defs>
			<clipPath id="SVGID_22_">
				<use xlink:href="#SVGID_21_"  overflow="visible"/>
			</clipPath>
		</g>
		<g clip-path="url(#SVGID_2_)">
			<defs>
				<rect id="SVGID_23_" x="-44.7" y="-199.8" width="133" height="90.5"/>
			</defs>
			<clipPath id="SVGID_24_">
				<use xlink:href="#SVGID_23_"  overflow="visible"/>
			</clipPath>
		</g>
		<g clip-path="url(#SVGID_2_)">
			<defs>
				<rect id="SVGID_25_" x="141.1" y="-199.8" width="133" height="90.5"/>
			</defs>
			<clipPath id="SVGID_26_">
				<use xlink:href="#SVGID_25_"  overflow="visible"/>
			</clipPath>
		</g>
		<g clip-path="url(#SVGID_2_)">
			<defs>
				<rect id="SVGID_27_" x="326.9" y="-199.8" width="133" height="90.5"/>
			</defs>
			<clipPath id="SVGID_28_">
				<use xlink:href="#SVGID_27_"  overflow="visible"/>
			</clipPath>
		</g>
	</g>
</g>
<path fill="#878787" d="M77.2,113.7c0,3,0,4.6,0,7.6c4.7-0.6,7-0.9,11.7-1.5c0,2.8,0,4.2,0,7c-4.7,0.6-7,0.9-11.7,1.5
	c0,5,0,7.5,0,12.5c-3.1,0.4-4.7,0.6-7.9,1.1c0-13.7,0-20.6,0-34.3c8.6-1.2,12.9-1.8,21.5-2.8c0,2.9,0,4.4,0,7.3
	C85.3,112.6,82.6,113,77.2,113.7z"/>
<path fill="#878787" d="M111,137.4c-10.5,1-17.2-5.8-17.2-15.8c0-10.1,7-18.6,17.6-19.6c10.5-1,17.3,6.1,17.3,16.2
	C128.6,128.2,121.5,136.4,111,137.4z M111.1,109c-5.4,0.5-9,5.4-9,11.5c0,6.1,3.6,10.2,9,9.7c5.4-0.5,9-5.3,9-11.5
	C120.1,112.7,116.5,108.5,111.1,109z"/>
<path fill="#878787" d="M143.5,134.8c-10.6,0.7-17.3-6.4-17.3-16.4c0-10.1,7.1-18.4,17.6-19c10.5-0.7,17.3,6.7,17.3,16.8
	C161.2,126.2,154,134.1,143.5,134.8z M143.7,106.4c-5.4,0.3-9,5.1-9,11.2c0,6.1,3.6,10.3,9,10c5.4-0.3,9-5,9-11.2
	C152.7,110.3,149.1,106.1,143.7,106.4z"/>
<path fill="#878787" d="M176.9,132.9c-4,0.1-6.2,0-10.4-0.2c0-13.5,0-20.2,0-33.7c4-0.6,6.7-0.8,10.1-0.9c14.2-0.4,20.8,7,20.8,16.7
	C197.4,125,191.1,132.5,176.9,132.9z M177.7,105.2c-1.4,0-2.1,0.1-3.3,0.3c0,8.1,0,12.1,0,20.2c1.4,0.1,2,0.1,3.8,0.1
	c7.5-0.2,10.8-4.4,10.8-10.9C189,108.7,185,105,177.7,105.2z"/>
<path fill="#878787" d="M214.8,132.7c-3,0-6.8-0.3-10.2-0.8c0-13.4,0-20.1,0-33.5c2.5-0.4,6.7-0.7,9.5-0.7c9.9,0.1,15,4.7,15,9.5
	c0,3.6-5.9,7.5-5.9,7.5c0,0.3,6.8,4.3,6.8,8.2C230.1,128.3,225,132.8,214.8,132.7z M215.9,104.7c-1.4,0-2.5,0.1-3.6,0.3
	c0,2.9,0,4.3,0,7.2c0.9,0.1,1.5,0.2,2.9,0.2c3.8,0,5.7-1.3,5.7-3.8C220.9,106.4,219.2,104.7,215.9,104.7z M215.3,117.7
	c-1.2,0-2.2,0-3,0.1c0,3.2,0,4.8,0,8c1.1,0.1,1.7,0.2,3.3,0.2c4,0,5.9-1.5,5.9-4C221.5,119.3,219.5,117.7,215.3,117.7z"/>
<path fill="#878787" d="M257.7,133.8c-1-2.6-1.5-3.8-2.6-6.4c-4.7-0.3-7.1-0.4-11.8-0.6c-1,2.4-1.5,3.7-2.6,6.1
	c-3.2-0.1-4.8-0.2-8.1-0.3c6.4-13.6,9.6-20.4,16.1-34c0.4,0,0.6,0,1.1,0.1c6.4,14.1,9.6,21.2,16.1,35.5
	C262.6,134.1,261,134,257.7,133.8z M249.2,112.8c-1.4,3.2-2,4.9-3.4,8.1c2.7,0.1,4,0.2,6.7,0.3C251.3,117.9,250.6,116.2,249.2,112.8
	z"/>
<path fill="#878787" d="M298.5,137.5c-8.2-8.2-12.3-12.2-20.5-20.3c0,7.2,0,10.8,0,17.9c-3.2-0.2-4.7-0.4-7.9-0.6c0-14,0-21,0-35
	c0.4,0,0.6,0,1.1,0.1c8.1,7.9,12.2,12,20.3,20.1c0-7.1,0-10.7,0-17.8c3.2,0.3,4.7,0.4,7.9,0.8c0,13.9,0,20.9,0,34.8
	C299,137.6,298.8,137.5,298.5,137.5z"/>
<path fill="#878787" d="M328.9,140.5c-5-7.1-7.5-10.6-12.5-17.6c0,6.4,0,9.6,0,16c-3.2-0.4-4.7-0.6-7.9-0.9c0-13.7,0-20.6,0-34.3
	c3.2,0.3,4.7,0.5,7.9,0.9c0,6,0,9,0,14.9c4.8-5.4,7.1-8.1,11.9-13.4c3.7,0.5,5.6,0.7,9.3,1.3c-5.6,5.7-8.4,8.6-13.9,14.5
	c5.9,7.9,8.8,11.9,14.7,19.9C334.6,141.3,332.7,141,328.9,140.5z"/>
<path fill="#878787" d="M111.9,77.6c0,1.7,0,2.5,0,4.2c2.6-0.2,3.9-0.4,6.5-0.6c0,1.5,0,2.3,0,3.9c-2.6,0.2-3.9,0.4-6.5,0.6
	c0,2.7,0,4.1,0,6.9c-1.7,0.2-2.6,0.3-4.4,0.4c0-7.6,0-11.4,0-19c4.8-0.5,7.1-0.7,11.9-1.1c0,1.6,0,2.4,0,4
	C116.4,77.2,114.9,77.3,111.9,77.6z"/>
<path fill="#878787" d="M138.7,90.4c-1.3-2.4-1.9-3.6-3.2-6c-0.3,0-0.5,0.1-0.7,0.1c-0.6,0-1,0-1.6,0.1c0,2.5,0,3.7,0,6.2
	c-1.8,0.1-2.6,0.2-4.4,0.3c0-7.5,0-11.3,0-18.8c1.6-0.3,3.3-0.6,5.5-0.7c5.9-0.4,8.2,2.2,8.2,5.7c0,2.2-1.2,4.3-3.2,5.7
	c1.8,2.8,2.7,4.2,4.4,7C141.7,90.2,140.7,90.2,138.7,90.4z M134.8,75.5c-0.7,0-1.1,0.1-1.7,0.3c0,2.1,0,3.1,0,5.2c0.6,0,0.9,0,1.4,0
	c2.1-0.2,3.4-1.3,3.4-3.2C137.9,76.2,136.7,75.4,134.8,75.5z"/>
<path fill="#878787" d="M152.5,89.6c0-7.6,0-11.4,0-19c4.8-0.3,7.2-0.4,11.9-0.6c0,1.6,0,2.4,0,4c-3,0.1-4.5,0.2-7.6,0.4
	c0,1.4,0,2,0,3.4c2.8-0.1,4.1-0.2,6.9-0.3c0,1.5,0,2.3,0,3.8c-2.8,0.1-4.1,0.2-6.9,0.3c0,1.5,0,2.2,0,3.7c3-0.1,4.5-0.2,7.6-0.4
	c0,1.6,0,2.4,0,4C159.6,89.2,157.3,89.3,152.5,89.6z"/>
<path fill="#878787" d="M175.7,88.6c0-7.6,0-11.4,0-19c4.8-0.2,7.2-0.2,11.9-0.3c0,1.6,0,2.4,0,4c-3,0.1-4.5,0.1-7.6,0.2
	c0,1.4,0,2,0,3.4c2.8-0.1,4.1-0.1,6.9-0.2c0,1.5,0,2.3,0,3.8c-2.8,0.1-4.1,0.1-6.9,0.2c0,1.5,0,2.2,0,3.7c3-0.1,4.5-0.1,7.6-0.2
	c0,1.6,0,2.4,0,4C182.8,88.4,180.5,88.5,175.7,88.6z"/>
<path fill="#878787" d="M202.1,88.4c-2.1,0-4.7-0.8-6.4-1.9c0.5-1.6,0.7-2.4,1.2-4c1.5,1.1,3.5,1.8,5.3,1.8c1.5,0,2.1-0.7,2.1-1.7
	c0-1-0.5-1.7-3.4-2.8c-3.3-1.3-4.5-3.2-4.5-5.5c0-2.8,2.2-5.5,6.6-5.5c2.1,0,4.2,0.7,5.3,1.5c-0.4,1.6-0.7,2.4-1.1,3.9
	c-1.1-0.8-2.8-1.6-4.2-1.5c-1.6,0-2.2,0.8-2.2,1.5c0,1.2,1,1.6,3.3,2.6c3.5,1.5,4.6,3.2,4.6,5.6C208.8,85.5,206.6,88.4,202.1,88.4z"
	/>
<path fill="#878787" d="M225,73.3c0,6,0,9,0,14.9c-1.7,0-2.6-0.1-4.4-0.1c0-6,0-8.9,0-14.9c-2.3,0-3.4,0-5.7-0.1c0-1.6,0-2.4,0-4
	c6.3,0.1,9.4,0.1,15.7,0.3c0,1.6,0,2.4,0,4C228.4,73.4,227.2,73.4,225,73.3z"/>
<path fill="#878787" d="M245.6,89.3c-5.8-0.3-9.6-4.6-9.6-10.1c0-5.6,3.9-9.7,9.7-9.4c5.8,0.2,9.6,4.7,9.6,10.3
	C255.3,85.5,251.4,89.5,245.6,89.3z M245.7,73.6c-3-0.1-5,2.3-5,5.7c0,3.4,2,5.9,5,6.1c3,0.1,5-2.3,5-5.7
	C250.6,76.3,248.6,73.8,245.7,73.6z"/>
<path fill="#878787" d="M273.5,90.6c-1.3-2.6-1.9-3.9-3.2-6.4c-0.3,0-0.5,0-0.7,0c-0.6,0-1-0.1-1.6-0.2c0,2.5,0,3.7,0,6.2
	c-1.7-0.1-2.6-0.2-4.4-0.3c0-7.5,0-11.3,0-18.8c1.6-0.1,3.3-0.1,5.5,0c5.9,0.4,8.2,3.4,8.2,6.9c0,2.2-1.2,4.2-3.2,5.2
	c1.8,3.1,2.7,4.6,4.4,7.7C276.5,90.9,275.5,90.8,273.5,90.6z M269.7,75.2c-0.7,0-1.1,0-1.7,0c0,2.1,0,3.1,0,5.2
	c0.6,0.1,0.9,0.1,1.4,0.2c2.1,0.1,3.4-0.8,3.4-2.7C272.8,76.4,271.5,75.3,269.7,75.2z"/>
<path fill="#878787" d="M286.5,91.7c0-7.6,0-11.4,0-19c4.8,0.4,7.1,0.6,11.9,1.1c0,1.6,0,2.4,0,4c-3-0.3-4.5-0.4-7.5-0.7
	c0,1.4,0,2,0,3.4c2.8,0.3,4.1,0.4,6.9,0.7c0,1.5,0,2.3,0,3.8c-2.7-0.3-4.1-0.4-6.9-0.7c0,1.5,0,2.2,0,3.7c3,0.3,4.5,0.4,7.5,0.7
	c0,1.6,0,2.4,0,4C293.6,92.3,291.2,92.1,286.5,91.7z"/>
<path fill="#878787" d="M77.2,113.7c0,3,0,4.6,0,7.6c4.7-0.6,7-0.9,11.7-1.5c0,2.8,0,4.2,0,7c-4.7,0.6-7,0.9-11.7,1.5
	c0,5,0,7.5,0,12.5c-3.1,0.4-4.7,0.6-7.9,1.1c0-13.7,0-20.6,0-34.3c8.6-1.2,12.9-1.8,21.5-2.8c0,2.9,0,4.4,0,7.3
	C85.3,112.6,82.6,113,77.2,113.7z"/>
<path fill="#878787" d="M111,137.4c-10.5,1-17.2-5.8-17.2-15.8c0-10.1,7-18.6,17.6-19.6c10.5-1,17.3,6.1,17.3,16.2
	C128.6,128.2,121.5,136.4,111,137.4z M111.1,109c-5.4,0.5-9,5.4-9,11.5c0,6.1,3.6,10.2,9,9.7c5.4-0.5,9-5.3,9-11.5
	C120.1,112.7,116.5,108.5,111.1,109z"/>
<path fill="#878787" d="M143.5,134.8c-10.6,0.7-17.3-6.4-17.3-16.4c0-10.1,7.1-18.4,17.6-19c10.5-0.7,17.3,6.7,17.3,16.8
	C161.2,126.2,154,134.1,143.5,134.8z M143.7,106.4c-5.4,0.3-9,5.1-9,11.2c0,6.1,3.6,10.3,9,10c5.4-0.3,9-5,9-11.2
	C152.7,110.3,149.1,106.1,143.7,106.4z"/>
<path fill="#878787" d="M176.9,132.9c-4,0.1-6.2,0-10.4-0.2c0-13.5,0-20.2,0-33.7c4-0.6,6.7-0.8,10.1-0.9c14.2-0.4,20.8,7,20.8,16.7
	C197.4,125,191.1,132.5,176.9,132.9z M177.7,105.2c-1.4,0-2.1,0.1-3.3,0.3c0,8.1,0,12.1,0,20.2c1.4,0.1,2,0.1,3.8,0.1
	c7.5-0.2,10.8-4.4,10.8-10.9C189,108.7,185,105,177.7,105.2z"/>
<path fill="#878787" d="M214.8,132.7c-3,0-6.8-0.3-10.2-0.8c0-19.2,0-25.9,0-33.5c2.5-0.4,6.7-0.7,9.5-0.7c9.9,0.1,15,4.7,15,9.5
	c0,3.6-5.9,7.5-5.9,7.5c0,0.3,6.8,4.3,6.8,8.2C230.1,128.3,225,132.8,214.8,132.7z M215.9,104.7c-1.4,0-2.5,0.1-3.6,0.3
	c0,2.9,0,4.3,0,7.2c0.9,0.1,1.5,0.2,2.9,0.2c3.8,0,5.7-1.3,5.7-3.8C220.9,106.4,219.2,104.7,215.9,104.7z M215.3,117.7
	c-1.2,0-2.2,0-3,0.1c0,3.2,0,4.8,0,8c1.1,0.1,1.7,0.2,3.3,0.2c4,0,5.9-1.5,5.9-4C221.5,119.3,219.5,117.7,215.3,117.7z"/>
<path fill="#878787" d="M257.7,133.8c-1-2.6-1.5-3.8-2.6-6.4c-4.7-0.3-7.1-0.4-11.8-0.6c-1,2.4-1.5,3.7-2.6,6.1
	c-3.2-0.1-4.8-0.2-8.1-0.3c6.4-13.6,9.6-20.4,16.1-34c0.4,0,0.6,0,1.1,0.1c6.4,14.1,9.6,21.2,16.1,35.5
	C262.6,134.1,261,134,257.7,133.8z M249.2,112.8c-1.4,3.2-2,4.9-3.4,8.1c2.7,0.1,4,0.2,6.7,0.3C251.3,117.9,250.6,116.2,249.2,112.8
	z"/>
<path fill="#878787" d="M298.5,137.5c-8.2-8.2-12.3-12.2-20.5-20.3c0,7.2,0,10.8,0,17.9c-3.2-0.2-4.7-0.4-7.9-0.6c0-14,0-21,0-35
	c0.4,0,0.6,0,1.1,0.1c8.1,7.9,12.2,12,20.3,20.1c0-7.1,0-10.7,0-17.8c3.2,0.3,4.7,0.4,7.9,0.8c0,13.9,0,20.9,0,34.8
	C299,137.6,298.8,137.5,298.5,137.5z"/>
<path fill="#878787" d="M328.9,140.5c-5-7.1-7.5-10.6-12.5-17.6c0,6.4,0,9.6,0,16c-3.2-0.4-4.7-0.6-7.9-0.9c0-13.7,0-20.6,0-34.3
	c3.2,0.3,4.7,0.5,7.9,0.9c0,6,0,9,0,14.9c4.8-5.4,7.1-8.1,11.9-13.4c3.7,0.5,5.6,0.7,9.3,1.3c-5.6,5.7-8.4,8.6-13.9,14.5
	c5.9,7.9,8.8,11.9,14.7,19.9C334.6,141.3,332.7,141,328.9,140.5z"/>
<path fill="#878787" d="M111.9,77.6c0,1.7,0,2.5,0,4.2c2.6-0.2,3.9-0.4,6.5-0.6c0,1.5,0,2.3,0,3.9c-2.6,0.2-3.9,0.4-6.5,0.6
	c0,2.7,0,4.1,0,6.9c-1.7,0.2-2.6,0.3-4.4,0.4c0-7.6,0-11.4,0-19c4.8-0.5,7.1-0.7,11.9-1.1c0,1.6,0,2.4,0,4
	C116.4,77.2,114.9,77.3,111.9,77.6z"/>
<path fill="#878787" d="M138.7,90.4c-1.3-2.4-1.9-3.6-3.2-6c-0.3,0-0.5,0.1-0.7,0.1c-0.6,0-1,0-1.6,0.1c0,2.5,0,3.7,0,6.2
	c-1.8,0.1-2.6,0.2-4.4,0.3c0-7.5,0-11.3,0-18.8c1.6-0.3,3.3-0.6,5.5-0.7c5.9-0.4,8.2,2.2,8.2,5.7c0,2.2-1.2,4.3-3.2,5.7
	c1.8,2.8,2.7,4.2,4.4,7C141.7,90.2,140.7,90.2,138.7,90.4z M134.8,75.5c-0.7,0-1.1,0.1-1.7,0.3c0,2.1,0,3.1,0,5.2c0.6,0,0.9,0,1.4,0
	c2.1-0.2,3.4-1.3,3.4-3.2C137.9,76.2,136.7,75.4,134.8,75.5z"/>
<path fill="#878787" d="M152.5,89.6c0-7.6,0-11.4,0-19c4.8-0.3,7.2-0.4,11.9-0.6c0,1.6,0,2.4,0,4c-3,0.1-4.5,0.2-7.6,0.4
	c0,1.4,0,2,0,3.4c2.8-0.1,4.1-0.2,6.9-0.3c0,1.5,0,2.3,0,3.8c-2.8,0.1-4.1,0.2-6.9,0.3c0,1.5,0,2.2,0,3.7c3-0.1,4.5-0.2,7.6-0.4
	c0,1.6,0,2.4,0,4C159.6,89.2,157.3,89.3,152.5,89.6z"/>
<path fill="#878787" d="M175.7,88.6c0-7.6,0-11.4,0-19c4.8-0.2,7.2-0.2,11.9-0.3c0,1.6,0,2.4,0,4c-3,0.1-4.5,0.1-7.6,0.2
	c0,1.4,0,2,0,3.4c2.8-0.1,4.1-0.1,6.9-0.2c0,1.5,0,2.3,0,3.8c-2.8,0.1-4.1,0.1-6.9,0.2c0,1.5,0,2.2,0,3.7c3-0.1,4.5-0.1,7.6-0.2
	c0,1.6,0,2.4,0,4C182.8,88.4,180.5,88.5,175.7,88.6z"/>
<path fill="#878787" d="M202.1,88.4c-2.1,0-4.7-0.8-6.4-1.9c0.5-1.6,0.7-2.4,1.2-4c1.5,1.1,3.5,1.8,5.3,1.8c1.5,0,2.1-0.7,2.1-1.7
	c0-1-0.5-1.7-3.4-2.8c-3.3-1.3-4.5-3.2-4.5-5.5c0-2.8,2.2-5.5,6.6-5.5c2.1,0,4.2,0.7,5.3,1.5c-0.4,1.6-0.7,2.4-1.1,3.9
	c-1.1-0.8-2.8-1.6-4.2-1.5c-1.6,0-2.2,0.8-2.2,1.5c0,1.2,1,1.6,3.3,2.6c3.5,1.5,4.6,3.2,4.6,5.6C208.8,85.5,206.6,88.4,202.1,88.4z"
	/>
<path fill="#878787" d="M225,73.3c0,6,0,9,0,14.9c-1.7,0-2.6-0.1-4.4-0.1c0-6,0-8.9,0-14.9c-2.3,0-3.4,0-5.7-0.1c0-1.6,0-2.4,0-4
	c6.3,0.1,9.4,0.1,15.7,0.3c0,1.6,0,2.4,0,4C228.4,73.4,227.2,73.4,225,73.3z"/>
<path fill="#878787" d="M245.6,89.3c-5.8-0.3-9.6-4.6-9.6-10.1c0-5.6,3.9-9.7,9.7-9.4c5.8,0.2,9.6,4.7,9.6,10.3
	C255.3,85.5,251.4,89.5,245.6,89.3z M245.7,73.6c-3-0.1-5,2.3-5,5.7c0,3.4,2,5.9,5,6.1c3,0.1,5-2.3,5-5.7
	C250.6,76.3,248.6,73.8,245.7,73.6z"/>
<path fill="#878787" d="M273.5,90.6c-1.3-2.6-1.9-3.9-3.2-6.4c-0.3,0-0.5,0-0.7,0c-0.6,0-1-0.1-1.6-0.2c0,2.5,0,3.7,0,6.2
	c-1.7-0.1-2.6-0.2-4.4-0.3c0-7.5,0-11.3,0-18.8c1.6-0.1,3.3-0.1,5.5,0c5.9,0.4,8.2,3.4,8.2,6.9c0,2.2-1.2,4.2-3.2,5.2
	c1.8,3.1,2.7,4.6,4.4,7.7C276.5,90.9,275.5,90.8,273.5,90.6z M269.7,75.2c-0.7,0-1.1,0-1.7,0c0,2.1,0,3.1,0,5.2
	c0.6,0.1,0.9,0.1,1.4,0.2c2.1,0.1,3.4-0.8,3.4-2.7C272.8,76.4,271.5,75.3,269.7,75.2z"/>
<path fill="#878787" d="M286.5,91.7c0-7.6,0-11.4,0-19c4.8,0.4,7.1,0.6,11.9,1.1c0,1.6,0,2.4,0,4c-3-0.3-4.5-0.4-7.5-0.7
	c0,1.4,0,2,0,3.4c2.8,0.3,4.1,0.4,6.9,0.7c0,1.5,0,2.3,0,3.8c-2.7-0.3-4.1-0.4-6.9-0.7c0,1.5,0,2.2,0,3.7c3,0.3,4.5,0.4,7.5,0.7
	c0,1.6,0,2.4,0,4C293.6,92.3,291.2,92.1,286.5,91.7z"/>
<g>
	<g>
		<g>
			<path fill="#878787" stroke="#878787" stroke-miterlimit="10" d="M86.4,233.4v4.2h3.1v1.8h-3.1v6.2h-2v-14.1h5.5v1.9H86.4z"/>
			<path fill="#878787" stroke="#878787" stroke-miterlimit="10" d="M97.9,245.8c-2.6,0-3.8-3.2-3.8-7.2c0-4,1.3-7.3,3.9-7.3
				c2.6,0,3.8,3.1,3.8,7.2C101.8,242.6,100.5,245.8,97.9,245.8z M97.9,233.1c-1.2,0-1.8,2.1-1.8,5.5c0,3.4,0.7,5.5,1.8,5.5
				c1.2,0,1.8-2.1,1.8-5.5C99.8,235.2,99.1,233.1,97.9,233.1z"/>
			<path fill="#878787" stroke="#878787" stroke-miterlimit="10" d="M109.9,245.8c-2.6,0-3.8-3.2-3.8-7.2c0-4,1.3-7.3,3.9-7.3
				c2.6,0,3.8,3.1,3.8,7.2C113.8,242.6,112.5,245.8,109.9,245.8z M109.9,233.1c-1.2,0-1.8,2.1-1.8,5.5c0,3.4,0.7,5.5,1.8,5.5
				c1.2,0,1.8-2.1,1.8-5.5C111.8,235.2,111.1,233.1,109.9,233.1z"/>
			<path fill="#878787" stroke="#878787" stroke-miterlimit="10" d="M120.4,245.7c-0.7,0-1.4-0.1-2-0.2v-14c0.6-0.1,1.2-0.2,2-0.2
				c3.4,0,5.3,2.8,5.3,7.1C125.7,242.9,123.8,245.7,120.4,245.7z M120.9,233.3c-0.1,0-0.3,0-0.4,0v10.6c0.1,0,0.2,0,0.4,0
				c1.7,0,2.8-2,2.8-5.4C123.7,235.4,122.6,233.3,120.9,233.3z"/>
			<path fill="#878787" stroke="#878787" stroke-miterlimit="10" d="M138.1,240.8c-1.2,0-2.2-1-2.2-2.2c0-1.2,1-2.2,2.2-2.2
				c1.2,0,2.2,1,2.2,2.2C140.3,239.8,139.3,240.8,138.1,240.8z"/>
			<path fill="#878787" stroke="#878787" stroke-miterlimit="10" d="M154.7,245.8c-2.3,0-4.3-2.6-4.3-7.2c0-4.4,1.8-7.3,4.3-7.3
				c0.9,0,1.5,0.2,2.2,0.8l-0.8,1.7c-0.5-0.4-0.9-0.6-1.4-0.6c-1.2,0-2.3,1.9-2.3,5.3c0,3.6,1.1,5.5,2.4,5.5c0.5,0,0.9-0.2,1.4-0.6
				l0.7,1.6C156.2,245.6,155.5,245.8,154.7,245.8z"/>
			<path fill="#878787" stroke="#878787" stroke-miterlimit="10" d="M164.2,245.8c-2.6,0-3.8-3.2-3.8-7.2c0-4,1.3-7.3,3.9-7.3
				c2.6,0,3.8,3.1,3.8,7.2C168.2,242.6,166.9,245.8,164.2,245.8z M164.3,233.1c-1.2,0-1.8,2.1-1.8,5.5c0,3.4,0.7,5.5,1.8,5.5
				c1.2,0,1.8-2.1,1.8-5.5C166.1,235.2,165.4,233.1,164.3,233.1z"/>
			<path fill="#878787" stroke="#878787" stroke-miterlimit="10" d="M178.8,245.7l-4.1-8.4v8.4h-2v-14.1l1,0l4.1,8.3v-8.2h2v14.1
				L178.8,245.7z"/>
			<path fill="#878787" stroke="#878787" stroke-miterlimit="10" d="M190.9,245.7l-4.1-8.4v8.4h-2v-14.1l1,0l4.1,8.3v-8.2h2v14.1
				L190.9,245.7z"/>
			<path fill="#878787" stroke="#878787" stroke-miterlimit="10" d="M196.8,245.6v-14.1h5.6v1.9h-3.6v4h3.2v1.8h-3.2v4.5h3.6v1.9
				H196.8z"/>
			<path fill="#878787" stroke="#878787" stroke-miterlimit="10" d="M210.9,245.8c-2.3,0-4.3-2.6-4.3-7.2c0-4.4,1.8-7.3,4.3-7.3
				c0.9,0,1.5,0.2,2.2,0.8l-0.8,1.7c-0.5-0.4-0.9-0.6-1.4-0.6c-1.2,0-2.3,1.9-2.3,5.3c0,3.6,1.1,5.5,2.4,5.5c0.5,0,0.9-0.2,1.4-0.6
				l0.7,1.6C212.4,245.6,211.7,245.8,210.9,245.8z"/>
			<path fill="#878787" stroke="#878787" stroke-miterlimit="10" d="M220.9,233.4v12.2h-2v-12.2h-2.2v-1.9h6.4v1.9H220.9z"/>
			<path fill="#878787" stroke="#878787" stroke-miterlimit="10" d="M227.6,245.6v-14.1h2v14.1H227.6z"/>
			<path fill="#878787" stroke="#878787" stroke-miterlimit="10" d="M238.1,245.8c-2.6,0-3.8-3.2-3.8-7.2c0-4,1.3-7.3,3.9-7.3
				c2.6,0,3.8,3.1,3.8,7.2C242,242.6,240.7,245.8,238.1,245.8z M238.1,233.1c-1.2,0-1.8,2.1-1.8,5.5c0,3.4,0.7,5.5,1.8,5.5
				c1.2,0,1.8-2.1,1.8-5.5C240,235.2,239.3,233.1,238.1,233.1z"/>
			<path fill="#878787" stroke="#878787" stroke-miterlimit="10" d="M252.7,245.7l-4.1-8.4v8.4h-2v-14.1l1,0l4.1,8.3v-8.2h2v14.1
				L252.7,245.7z"/>
			<path fill="#878787" stroke="#878787" stroke-miterlimit="10" d="M266.4,240.8c-1.2,0-2.2-1-2.2-2.2c0-1.2,1-2.2,2.2-2.2
				c1.2,0,2.2,1,2.2,2.2C268.6,239.8,267.6,240.8,266.4,240.8z"/>
			<path fill="#878787" stroke="#878787" stroke-miterlimit="10" d="M284.2,245.6v-6.2h-3v6.2h-2v-14.1h2v6h3v-6h2v14.1H284.2z"/>
			<path fill="#878787" stroke="#878787" stroke-miterlimit="10" d="M294.6,245.8c-2.6,0-3.8-3.2-3.8-7.2c0-4,1.3-7.3,3.9-7.3
				c2.6,0,3.8,3.1,3.8,7.2C298.6,242.6,297.3,245.8,294.6,245.8z M294.7,233.1c-1.2,0-1.8,2.1-1.8,5.5c0,3.4,0.7,5.5,1.8,5.5
				c1.2,0,1.8-2.1,1.8-5.5C296.5,235.2,295.9,233.1,294.7,233.1z"/>
			<path fill="#878787" stroke="#878787" stroke-miterlimit="10" d="M305.7,240.8c-0.2,0-0.3,0-0.5,0v4.8h-2v-14
				c0.6-0.1,1.3-0.2,2.2-0.2c3.1,0,4.4,2.2,4.4,4.7C309.8,238.5,308.5,240.8,305.7,240.8z M305.7,233.3c-0.2,0-0.3,0-0.5,0v5.7
				c0.2,0,0.3,0,0.5,0c1.3,0,2.1-1,2.1-2.9C307.8,234.3,307,233.3,305.7,233.3z"/>
			<path fill="#878787" stroke="#878787" stroke-miterlimit="10" d="M314.2,245.6v-14.1h5.6v1.9h-3.6v4h3.2v1.8h-3.2v4.5h3.6v1.9
				H314.2z"/>
		</g>
	</g>
</g>
</svg>
