<?xml version="1.0" encoding="utf-8"?>
<!-- Generator: Adobe Illustrator 18.0.0, SVG Export Plug-In . SVG Version: 6.00 Build 0)  -->
<!DOCTYPE svg PUBLIC "-//W3C//DTD SVG 1.1//EN" "http://www.w3.org/Graphics/SVG/1.1/DTD/svg11.dtd">
<svg version="1.1" id="Layer_1" xmlns="http://www.w3.org/2000/svg" xmlns:xlink="http://www.w3.org/1999/xlink" x="0px" y="0px"
	 viewBox="0 0 320 320" enable-background="new 0 0 320 320" xml:space="preserve">
<g>
	<path fill="#717B85" d="M24.5,151.8c0,62.6,59.9,104.9,133,104.9c72.7,0,138.5-43.9,138.5-108.4c0-61.2-59.9-105.5-133.7-105.5
		C86.3,42.8,24.5,92.2,24.5,151.8"/>
	<path fill="#FFFFFF" d="M163,54.1c66.8,0,121.7,38.7,121.7,93.9c0,58.2-61.4,97.3-127.4,97.3c-64.9,0-121.7-37.2-121.7-94.2
		C35.7,97.6,92.8,54.1,163,54.1"/>
	<path fill="#717B85" d="M40.1,150.6c0,55.7,55.1,90.6,118.1,90.6c36.4,0,63.7-9.5,84.7-25.4c24.8-18.9,37.8-43.9,37.8-67.9
		c0-53.4-53.4-89.5-117.3-89.5C95.4,58.3,40.1,99.1,40.1,150.6"/>
	<path fill="#FFFFFF" d="M69.5,106.8h5.7c3.4,0,3.6,1.1,3.6,5.9v20.6c0,3.2,0.2,4.6,1.9,4.6c6.5,0,11.1-8.8,12.4-15.6
		c1.5-7.6,1.3-14.1,2.7-20.8c3.6-15.3,13.2-24.8,29.4-24.8c12,0,21,6.3,25.4,17.4c1.7,4.2,2.7,9.7,3.2,16.2c0,13.2,0,13.2-4,13.2h-5
		c-2.5,0-2.9-0.8-2.9-3.4c0-19.1,0-36.4-18.1-36.4c-13.2,0-15.6,8.2-17.7,29.2c-2.1,20.8-3.2,21.4-18.7,30.3c4.8,2.9,16,9.7,16,32.2
		c0,1.7-0.6,1.9-2.7,1.9H96c-4.4,0-4.4-0.2-6.3-14.9c-0.6-5.7-4.4-14.7-9.2-14.7c-1.5,0-1.7,1.5-1.7,4.8l0.4,22.5
		c0,1.7-0.2,2.3-2.1,2.3h-6.9c-2.7,0-3.8-0.2-3.8-3.4l-0.4-64.5C65.9,107.9,67,106.8,69.5,106.8"/>
	<path fill="#FFFFFF" d="M152.7,186.1c3.4,0,3.4,0,3.8,8.4c0.2,5.3,0.6,7.6,1.7,10.7c2.5,7.1,8.4,12.8,16.2,12.8
		c13.5,0,16.4-12.2,16.4-31.9c0-4.6-0.2-5.9-1.1-10.5c-3.6,1.7-5.7,2.3-8.6,2.3c-8.2,0-14.3-7.4-14.3-20.8c0-15.8,6.9-27.1,16-27.1
		c2.3,0,4.2,0.6,8.2,2.5c1.7-1.3,2.3-1.3,4.8-1.3h4.2c2.5,0,2.9,0.2,2.9,1.5c0,3.2-0.8,0.6-0.8,13.7v35.3c0,25-7.1,43.7-30.3,43.7
		c-16.6,0-28.4-15.1-28.4-35.5c0-3.4,0.6-3.8,3.2-3.8H152.7"/>
	<path fill="#717B85" d="M185.9,139.2c-4,0-6.9,5-6.9,16.2c0,7.4,2.5,12.2,6.7,12.2c4.6,0,4.8-2.5,4.8-20.2
		C190.6,143,190.1,139.2,185.9,139.2"/>
	<path fill="#FFFFFF" d="M107.3,132.3c0-0.6,0.4-1.1,3.8-1.1h3.4c2.1,0,2.3,0,5.3,2.7c2.5-1.5,5.5-2.7,8.2-2.7c1.5,0,1.7,1.3,1.7,4
		v4.2l1.3,0.6c4.8-6.5,8.8-10.3,16.4-10.3c11.8,0,18.1,9.7,18.1,23.5c0,15.1-7.1,25.6-19.3,25.6c-10.9,0-18.1-8.6-18.1-22.3
		c0-3.8,0.2-7.1,1.9-14.7c-9.2,1.3-10.7,2.1-10.7,16.4v14.3c0,4-0.2,4.8-4.2,4.8h-3.8c-3.2,0-3.2-0.4-3.2-5.5L107.3,132.3"/>
	<path fill="#717B85" d="M146.6,140.1c-4,0-6.3,5.5-6.3,17.2c0,6.5,1.7,11.3,6.3,11.3c4.2,0,6.7-5.5,6.7-15.6
		C153.3,145.5,151.2,140.1,146.6,140.1"/>
	<path fill="#FFFFFF" d="M220.8,154.8c-2.5,0-3.4,1.1-3.4,3.4c0,5.5,2.5,10.1,6.3,10.1c6.7,0,3.8-9.9,9-9.9h6.3
		c1.9,0,2.5,0.4,2.5,2.3c0,10.1-9.7,17.7-17.7,17.7c-12.8,0-18.9-10.9-18.9-24.4c0-12.8,7.4-24.6,19.1-24.6
		c11.3,0,17.4,9.2,17.4,22.5c0,2.3-0.6,2.9-4.4,2.9H220.8"/>
	<path fill="#717B85" d="M227.3,146.8c1.3,0,2.3-1.1,2.3-2.3c0-2.7-3.4-5.5-5.5-5.5c-1.1,0-5.5,2.1-5.5,5.7c0,1.3,1.3,2.1,2.7,2.1
		H227.3"/>
	<path fill="#FFFFFF" d="M247.3,131.2h4c2.1,0,2.9,0.2,4.8,3.2c5.9-3.2,6.5-3.6,8.2-3.6c2.1,0,2.7,1.1,2.7,2.7v4.4
		c0,6.9-5.7,1.1-8.8,6.9c-0.8,1.7-2.1,5-2.1,12.6v16.4c0,2.5-0.4,3.6-2.7,3.6h-4c-2.1,0-4.2-0.2-4.2-2.1l-0.4-42.7
		C244.8,131.6,245.6,131.2,247.3,131.2"/>
	<g>
		<path fill="#FFFFFF" d="M212.8,183.2c-0.7-0.7-1.5-1-2.5-1c-1,0-1.8,0.3-2.4,1c-0.7,0.7-1,1.5-1,2.4c0,1,0.3,1.8,1,2.5
			c0.7,0.7,1.5,1,2.4,1c1,0,1.8-0.3,2.5-1c0.7-0.7,1-1.5,1-2.5C213.8,184.7,213.4,183.9,212.8,183.2z"/>
		<path fill="#717B85" d="M212.4,183.6c0.6,0.6,0.9,1.3,0.9,2.1c0,0.8-0.3,1.5-0.9,2.1c-0.6,0.6-1.3,0.9-2.1,0.9
			c-0.8,0-1.5-0.3-2.1-0.9c-0.6-0.6-0.9-1.3-0.9-2.1c0-0.8,0.3-1.5,0.9-2.1c0.6-0.6,1.3-0.9,2.1-0.9
			C211.1,182.7,211.8,183,212.4,183.6z"/>
		<path fill="#FFFFFF" d="M208.9,187.6h0.7v-1.5h0.5c0.4,0,0.6,0,0.7,0.1c0.2,0.1,0.4,0.4,0.4,0.9v0.3l0,0.1c0,0,0,0,0,0
			c0,0,0,0,0,0h0.6l0,0c0,0,0-0.1,0-0.2c0-0.1,0-0.2,0-0.3v-0.3c0-0.2-0.1-0.4-0.2-0.6c-0.1-0.2-0.4-0.3-0.7-0.4
			c0.2,0,0.4-0.1,0.6-0.2c0.2-0.2,0.4-0.4,0.4-0.7c0-0.5-0.2-0.8-0.6-1c-0.2-0.1-0.6-0.1-1-0.1h-1.3V187.6z"/>
		<path fill="#717B85" d="M210.8,185.5c-0.1,0.1-0.4,0.1-0.6,0.1h-0.6v-1.4h0.6c0.4,0,0.6,0,0.8,0.1c0.2,0.1,0.3,0.3,0.3,0.6
			C211.2,185.2,211.1,185.4,210.8,185.5z"/>
	</g>
</g>
</svg>
