<?xml version="1.0" encoding="utf-8"?>
<!-- Generator: Adobe Illustrator 18.0.0, SVG Export Plug-In . SVG Version: 6.00 Build 0)  -->
<!DOCTYPE svg PUBLIC "-//W3C//DTD SVG 1.1//EN" "http://www.w3.org/Graphics/SVG/1.1/DTD/svg11.dtd">
<svg version="1.1" id="Layer_1" xmlns="http://www.w3.org/2000/svg" xmlns:xlink="http://www.w3.org/1999/xlink" x="0px" y="0px"
	 viewBox="0 0 400 300" enable-background="new 0 0 400 300" xml:space="preserve">
<g>
	<polygon fill-rule="evenodd" clip-rule="evenodd" fill="#878787" points="68.3,239.6 90.8,239.6 90.8,252.2 55,252.2 55,166.7 
		68.3,166.7 68.3,239.6 	"/>
	<path fill-rule="evenodd" clip-rule="evenodd" fill="#878787" d="M174,209.6c0,24.6-20.3,44-44.7,44c-24.4,0-44.7-19.5-44.7-44
		c0-24.5,20.2-44.3,44.7-44.3C153.8,165.3,174,185.1,174,209.6L174,209.6L174,209.6z M98,209.5c0,17.2,14,31.5,31.4,31.5
		s31.4-14.3,31.4-31.5c0-17.3-13.8-31.5-31.4-31.5C111.8,178,98,192.2,98,209.5L98,209.5z"/>
	<polygon fill-rule="evenodd" clip-rule="evenodd" fill="#878787" points="202.3,252.2 188.9,252.2 188.9,179.4 169.2,179.4 
		169.2,166.7 222.2,166.7 222.2,179.4 202.3,179.4 202.3,252.2 	"/>
	<path fill-rule="evenodd" clip-rule="evenodd" fill="#878787" d="M264.2,187.7l-1.1-1.9c-3-5.2-6.3-7.8-12.3-7.8
		c-6.3,0-11.4,4.4-11.4,10.5c0,2.7,1.3,4.7,3.5,6.4c2.3,1.8,5.2,3.1,8,4.4l5.4,2.4c10.6,4.6,20.9,10.4,20.9,24.8
		c0,15.4-12.5,27.2-27.8,27.2c-14.2,0-24.7-9.2-27.5-22.7l-0.4-1.9l13.1-3.7l0.3,2.4c1.1,7.5,6.7,13.3,14.3,13.3
		c7.8,0,14.7-5.9,14.7-13.7c0-7.9-5.9-10.7-13.8-14.3l-5-2.2c-9.5-4.3-19-9.7-19-22.7c0-14.1,12-22.8,25-22.8
		c9.9,0,18.3,5.1,23,13.7l0.9,1.7L264.2,187.7L264.2,187.7z"/>
	<path fill-rule="evenodd" clip-rule="evenodd" fill="#878787" d="M55,155.8V46.2h46.4c21.2,0,42.9,5.1,42.9,30.4
		c0,9.6-4.8,19-14.4,22.1v0.9c11.9,4.2,19.5,12.9,19.5,26c0,22.5-20.9,30.2-40.1,30.2H55L55,155.8L55,155.8z M91.9,88.4h3.6
		c5.8,0,12.4-0.6,12.4-8.1c0-8.1-7.4-7.6-13.2-7.6h-2.8V88.4L91.9,88.4L91.9,88.4z M91.9,111.5v18.2h4.5c6.5,0,16-0.1,16-9.2
		c0-9.2-10.2-9-16.6-9H91.9L91.9,111.5z"/>
	<polygon fill-rule="evenodd" clip-rule="evenodd" fill="#878787" points="156.6,46.2 196.4,46.2 196.4,155.8 156.6,155.8 
		156.6,46.2 	"/>
	<path fill-rule="evenodd" clip-rule="evenodd" fill="#878787" d="M261.9,91.3h61.5c-0.1,3.5-0.1,6.8-0.2,10.1L300,96.7l-1.7,4
		c-6.1,14.7-10.8,33.6-14,53.6c-6.7,2.2-13.7,3.3-20.6,3.3c-33.4,0-60.4-20.6-60.4-55.8c0-35.7,26.3-57.3,60.7-57.3
		c19,0,45.2,9.4,53.8,28.2l-37.2,13.7c-3.1-5.5-8.7-8.4-15.1-8.4c-14.2,0-22.1,12.2-22.1,25.4c0,12.1,7.6,23.4,20.5,23.4
		c6.2,0,14.2-2.9,16.1-9.6h-18V91.3L261.9,91.3z"/>
	<path fill-rule="evenodd" clip-rule="evenodd" fill="#878787" d="M284.6,214.8c0.5-38.4,6.9-83.7,18.8-112.3l49.9,10.2
		c-18.9,30.9-31.7,71.2-38.5,106.7L284.6,214.8L284.6,214.8L284.6,214.8z M286.3,252.6c-1-8-1.5-17-1.7-26.7l28.2,4.5
		c-1.5,9.1-2.5,17.8-3.2,25.8L286.3,252.6L286.3,252.6z"/>
	<polygon fill-rule="evenodd" clip-rule="evenodd" fill="#878787" points="318.2,247.9 320.3,247.9 320.3,253.4 321.1,253.4 
		321.1,247.9 323.2,247.9 323.2,247.1 318.2,247.1 318.2,247.9 	"/>
	<path fill-rule="evenodd" clip-rule="evenodd" fill="#878787" d="M329.9,253.4v-6.2h-1.2l-1.8,5.3h0l-1.8-5.3H324v6.2h0.8v-3.7
		c0-0.2,0-1,0-1.5h0l1.8,5.2h0.8l1.7-5.2h0c0,0.6,0,1.4,0,1.5v3.7H329.9L329.9,253.4z"/>
	<polygon fill-rule="evenodd" clip-rule="evenodd" fill="#878787" points="68.3,239.6 90.8,239.6 90.8,252.2 55,252.2 55,166.7 
		68.3,166.7 68.3,239.6 	"/>
	<path fill-rule="evenodd" clip-rule="evenodd" fill="#878787" d="M174,209.6c0,24.6-20.3,44-44.7,44c-24.4,0-44.7-19.5-44.7-44
		c0-24.5,20.2-44.3,44.7-44.3C153.8,165.3,174,185.1,174,209.6L174,209.6L174,209.6z M98,209.5c0,17.2,14,31.5,31.4,31.5
		s31.4-14.3,31.4-31.5c0-17.3-13.8-31.5-31.4-31.5C111.8,178,98,192.2,98,209.5L98,209.5z"/>
	<polygon fill-rule="evenodd" clip-rule="evenodd" fill="#878787" points="202.3,252.2 188.9,252.2 188.9,179.4 169.2,179.4 
		169.2,166.7 222.2,166.7 222.2,179.4 202.3,179.4 202.3,252.2 	"/>
	<path fill-rule="evenodd" clip-rule="evenodd" fill="#878787" d="M264.2,187.7l-1.1-1.9c-3-5.2-6.3-7.8-12.3-7.8
		c-6.3,0-11.4,4.4-11.4,10.5c0,2.7,1.3,4.7,3.5,6.4c2.3,1.8,5.2,3.1,8,4.4l5.4,2.4c10.6,4.6,20.9,10.4,20.9,24.8
		c0,15.4-12.5,27.2-27.8,27.2c-14.2,0-24.7-9.2-27.5-22.7l-0.4-1.9l13.1-3.7l0.3,2.4c1.1,7.5,6.7,13.3,14.3,13.3
		c7.8,0,14.7-5.9,14.7-13.7c0-7.9-5.9-10.7-13.8-14.3l-5-2.2c-9.5-4.3-19-9.7-19-22.7c0-14.1,12-22.8,25-22.8
		c9.9,0,18.3,5.1,23,13.7l0.9,1.7L264.2,187.7L264.2,187.7z"/>
	<path fill-rule="evenodd" clip-rule="evenodd" fill="#878787" d="M55,155.8V46.2h46.4c21.2,0,42.9,5.1,42.9,30.4
		c0,9.6-4.8,19-14.4,22.1v0.9c11.9,4.2,19.5,12.9,19.5,26c0,22.5-20.9,30.2-40.1,30.2H55L55,155.8L55,155.8z M91.9,88.4h3.6
		c5.8,0,12.4-0.6,12.4-8.1c0-8.1-7.4-7.6-13.2-7.6h-2.8V88.4L91.9,88.4L91.9,88.4z M91.9,111.5v18.2h4.5c6.5,0,16-0.1,16-9.2
		c0-9.2-10.2-9-16.6-9H91.9L91.9,111.5z"/>
	<polygon fill-rule="evenodd" clip-rule="evenodd" fill="#878787" points="156.6,46.2 196.4,46.2 196.4,155.8 156.6,155.8 
		156.6,46.2 	"/>
	<path fill-rule="evenodd" clip-rule="evenodd" fill="#878787" d="M261.9,91.3h61.5c-0.1,3.5-0.1,6.8-0.2,10.1L300,96.7l-1.7,4
		c-6.1,14.7-10.8,33.6-14,53.6c-6.7,2.2-13.7,3.3-20.6,3.3c-33.4,0-60.4-20.6-60.4-55.8c0-35.7,26.3-57.3,60.7-57.3
		c19,0,45.2,9.4,53.8,28.2l-37.2,13.7c-3.1-5.5-8.7-8.4-15.1-8.4c-14.2,0-22.1,12.2-22.1,25.4c0,12.1,7.6,23.4,20.5,23.4
		c6.2,0,14.2-2.9,16.1-9.6h-18V91.3L261.9,91.3z"/>
	<path fill-rule="evenodd" clip-rule="evenodd" fill="#878787" d="M284.6,214.8c0.5-38.4,6.9-83.7,18.8-112.3l49.9,10.2
		c-18.9,30.9-31.7,71.2-38.5,106.7L284.6,214.8L284.6,214.8L284.6,214.8z M286.3,252.6c-1-8-1.5-17-1.7-26.7l28.2,4.5
		c-1.5,9.1-2.5,17.8-3.2,25.8L286.3,252.6L286.3,252.6z"/>
	<polygon fill-rule="evenodd" clip-rule="evenodd" fill="#878787" points="318.2,247.9 320.3,247.9 320.3,253.4 321.1,253.4 
		321.1,247.9 323.2,247.9 323.2,247.1 318.2,247.1 318.2,247.9 	"/>
	<path fill-rule="evenodd" clip-rule="evenodd" fill="#878787" d="M329.9,253.4v-6.2h-1.2l-1.8,5.3h0l-1.8-5.3H324v6.2h0.8v-3.7
		c0-0.2,0-1,0-1.5h0l1.8,5.2h0.8l1.7-5.2h0c0,0.6,0,1.4,0,1.5v3.7H329.9L329.9,253.4z"/>
</g>
</svg>
