<?xml version="1.0" encoding="utf-8"?>
<!-- Generator: Adobe Illustrator 18.0.0, SVG Export Plug-In . SVG Version: 6.00 Build 0)  -->
<!DOCTYPE svg PUBLIC "-//W3C//DTD SVG 1.1//EN" "http://www.w3.org/Graphics/SVG/1.1/DTD/svg11.dtd">
<svg version="1.1" id="Layer_1" xmlns="http://www.w3.org/2000/svg" xmlns:xlink="http://www.w3.org/1999/xlink" x="0px" y="0px"
	 viewBox="0 0 100 100" enable-background="new 0 0 100 100" xml:space="preserve">
<g>
	<polygon fill="#717B85" points="17.1,72.4 22.7,72.4 22.7,75.6 13.8,75.6 13.8,54.2 17.1,54.2 	"/>
	<path fill="#717B85" d="M43.5,64.9c0,6.2-5.1,11-11.2,11s-11.2-4.9-11.2-11s5-11.1,11.2-11.1S43.5,58.8,43.5,64.9L43.5,64.9
		L43.5,64.9z M24.5,64.9c0,4.3,3.5,7.9,7.8,7.9s7.8-3.6,7.8-7.9c0-4.3-3.5-7.9-7.8-7.9S24.5,60.5,24.5,64.9L24.5,64.9z"/>
	<polygon fill="#717B85" points="50.6,75.6 47.2,75.6 47.2,57.3 42.3,57.3 42.3,54.2 55.5,54.2 55.5,57.3 50.6,57.3 	"/>
	<path fill="#717B85" d="M66.1,59.4L65.8,59c-0.8-1.3-1.6-2-3.1-2c-1.6,0-2.8,1.1-2.8,2.6c0,0.7,0.3,1.2,0.9,1.6
		c0.6,0.5,1.3,0.8,2,1.1l1.4,0.6c2.7,1.2,5.2,2.6,5.2,6.2c0,3.8-3.1,6.8-7,6.8c-3.5,0-6.2-2.3-6.9-5.7l-0.1-0.5l3.3-0.9l0.1,0.6
		c0.3,1.9,1.7,3.3,3.6,3.3c2,0,3.7-1.5,3.7-3.4c0-2-1.5-2.7-3.5-3.6l-1.2-0.5c-2.4-1.1-4.8-2.4-4.8-5.7c0-3.5,3-5.7,6.2-5.7
		c2.5,0,4.6,1.3,5.8,3.4l0.2,0.4L66.1,59.4L66.1,59.4z"/>
	<path fill="#717B85" d="M13.8,51.5V24h11.6c5.3,0,10.7,1.3,10.7,7.6c0,2.4-1.2,4.8-3.6,5.5v0.2c3,1,4.9,3.2,4.9,6.5
		c0,5.6-5.2,7.5-10,7.5H13.8L13.8,51.5L13.8,51.5z M23,34.6h0.9c1.5,0,3.1-0.1,3.1-2c0-2-1.9-1.9-3.3-1.9H23V34.6L23,34.6L23,34.6z
		 M23,40.4v4.5h1.1c1.6,0,4,0,4-2.3c0-2.3-2.5-2.2-4.1-2.2H23L23,40.4z"/>
	<polygon fill="#717B85" points="39.2,24 49.1,24 49.1,51.5 39.2,51.5 	"/>
	<path fill="#717B85" d="M65.5,35.3h15.4c0,0.9,0,1.7-0.1,2.5L75,36.7l-0.4,1c-1.5,3.7-2.7,8.4-3.5,13.4c-1.7,0.5-3.4,0.8-5.2,0.8
		c-8.3,0-15.1-5.2-15.1-14c0-8.9,6.6-14.3,15.2-14.3c4.8,0,11.3,2.4,13.4,7.1l-9.3,3.4C69.4,32.7,68,32,66.4,32
		c-3.5,0-5.5,3-5.5,6.4c0,3,1.9,5.8,5.1,5.8c1.6,0,3.6-0.7,4-2.4h-4.5L65.5,35.3L65.5,35.3z"/>
	<path fill="#717B85" d="M71.2,66.2c0.1-9.6,1.7-20.9,4.7-28.1l12.5,2.5c-4.7,7.7-7.9,17.8-9.6,26.7L71.2,66.2L71.2,66.2L71.2,66.2z
		 M71.6,75.7c-0.2-2-0.4-4.2-0.4-6.7l7.1,1.1c-0.4,2.3-0.6,4.4-0.8,6.4L71.6,75.7L71.6,75.7z"/>
	<polygon fill="#717B85" points="79.6,74.5 80.1,74.5 80.1,75.8 80.3,75.8 80.3,74.5 80.8,74.5 80.8,74.3 79.6,74.3 	"/>
	<path fill="#717B85" d="M82.5,75.8v-1.5h-0.3l-0.4,1.3l0,0l-0.4-1.3H81v1.5h0.2v-0.9c0-0.1,0-0.2,0-0.4l0,0l0.4,1.3h0.2l0.4-1.3
		l0,0c0,0.1,0,0.3,0,0.4v0.9H82.5L82.5,75.8z"/>
	<polygon fill="#717B85" points="17.1,72.4 22.7,72.4 22.7,75.6 13.8,75.6 13.8,54.2 17.1,54.2 	"/>
	<path fill="#717B85" d="M43.5,64.9c0,6.2-5.1,11-11.2,11s-11.2-4.9-11.2-11s5-11.1,11.2-11.1S43.5,58.8,43.5,64.9L43.5,64.9
		L43.5,64.9z M24.5,64.9c0,4.3,3.5,7.9,7.8,7.9s7.8-3.6,7.8-7.9c0-4.3-3.5-7.9-7.8-7.9S24.5,60.5,24.5,64.9L24.5,64.9z"/>
	<polygon fill="#717B85" points="50.6,75.6 47.2,75.6 47.2,57.3 42.3,57.3 42.3,54.2 55.5,54.2 55.5,57.3 50.6,57.3 	"/>
	<path fill="#717B85" d="M66.1,59.4L65.8,59c-0.8-1.3-1.6-2-3.1-2c-1.6,0-2.8,1.1-2.8,2.6c0,0.7,0.3,1.2,0.9,1.6
		c0.6,0.5,1.3,0.8,2,1.1l1.4,0.6c2.7,1.2,5.2,2.6,5.2,6.2c0,3.8-3.1,6.8-7,6.8c-3.5,0-6.2-2.3-6.9-5.7l-0.1-0.5l3.3-0.9l0.1,0.6
		c0.3,1.9,1.7,3.3,3.6,3.3c2,0,3.7-1.5,3.7-3.4c0-2-1.5-2.7-3.5-3.6l-1.2-0.5c-2.4-1.1-4.8-2.4-4.8-5.7c0-3.5,3-5.7,6.2-5.7
		c2.5,0,4.6,1.3,5.8,3.4l0.2,0.4L66.1,59.4L66.1,59.4z"/>
	<path fill="#717B85" d="M13.8,51.5V24h11.6c5.3,0,10.7,1.3,10.7,7.6c0,2.4-1.2,4.8-3.6,5.5v0.2c3,1,4.9,3.2,4.9,6.5
		c0,5.6-5.2,7.5-10,7.5H13.8L13.8,51.5L13.8,51.5z M23,34.6h0.9c1.5,0,3.1-0.1,3.1-2c0-2-1.9-1.9-3.3-1.9H23V34.6L23,34.6L23,34.6z
		 M23,40.4v4.5h1.1c1.6,0,4,0,4-2.3c0-2.3-2.5-2.2-4.1-2.2H23L23,40.4z"/>
	<polygon fill="#717B85" points="39.2,24 49.1,24 49.1,51.5 39.2,51.5 	"/>
	<path fill="#717B85" d="M65.5,35.3h15.4c0,0.9,0,1.7-0.1,2.5L75,36.7l-0.4,1c-1.5,3.7-2.7,8.4-3.5,13.4c-1.7,0.5-3.4,0.8-5.2,0.8
		c-8.3,0-15.1-5.2-15.1-14c0-8.9,6.6-14.3,15.2-14.3c4.8,0,11.3,2.4,13.4,7.1l-9.3,3.4C69.4,32.7,68,32,66.4,32
		c-3.5,0-5.5,3-5.5,6.4c0,3,1.9,5.8,5.1,5.8c1.6,0,3.6-0.7,4-2.4h-4.5L65.5,35.3L65.5,35.3z"/>
	<path fill="#717B85" d="M71.2,66.2c0.1-9.6,1.7-20.9,4.7-28.1l12.5,2.5c-4.7,7.7-7.9,17.8-9.6,26.7L71.2,66.2L71.2,66.2L71.2,66.2z
		 M71.6,75.7c-0.2-2-0.4-4.2-0.4-6.7l7.1,1.1c-0.4,2.3-0.6,4.4-0.8,6.4L71.6,75.7L71.6,75.7z"/>
	<polygon fill="#717B85" points="79.6,74.5 80.1,74.5 80.1,75.8 80.3,75.8 80.3,74.5 80.8,74.5 80.8,74.3 79.6,74.3 	"/>
	<path fill="#717B85" d="M82.5,75.8v-1.5h-0.3l-0.4,1.3l0,0l-0.4-1.3H81v1.5h0.2v-0.9c0-0.1,0-0.2,0-0.4l0,0l0.4,1.3h0.2l0.4-1.3
		l0,0c0,0.1,0,0.3,0,0.4v0.9H82.5L82.5,75.8z"/>
</g>
</svg>
