<?xml version="1.0" encoding="utf-8"?>
<!-- Generator: Adobe Illustrator 18.0.0, SVG Export Plug-In . SVG Version: 6.00 Build 0)  -->
<!DOCTYPE svg PUBLIC "-//W3C//DTD SVG 1.1//EN" "http://www.w3.org/Graphics/SVG/1.1/DTD/svg11.dtd">
<svg version="1.1" id="Layer_1" xmlns="http://www.w3.org/2000/svg" xmlns:xlink="http://www.w3.org/1999/xlink" x="0px" y="0px"
	 viewBox="0 0 400 300" enable-background="new 0 0 400 300" xml:space="preserve">
<g>
	<path fill="#FDBB30" d="M202.2,183c-4.7,0-7-4.5-8.8-11.8c-3.1-13.3-13.9-61.5-13.9-92.6c0-23.6,8.9-31.5,22.5-31.5
		c13.6,0,22.5,8,22.5,31.5c0,31.1-10.7,79.3-13.9,92.6C209.2,178.6,206.9,183,202.2,183z"/>
	<path fill="#FDBB30" d="M236.5,178.6c-2.3-1-2.8-4.2-1.8-9.3c3.8-17.5,12.1-57.4,19.3-78.1c5.4-15.2,15.5-19.9,23.9-16.4
		c11.4,4.8,11.2,17.7,7,28.3c-7.7,19.7-32.7,56.9-40.4,70.2C242.2,177.9,239.4,179.9,236.5,178.6z"/>
	<path fill="#FDBB30" d="M270.2,178.9c-1.8-1.5-1.9-3.8,0.1-7.2c6.7-11.1,28.5-43.5,38.8-56.5c7.4-9.5,15.3-10.4,20.9-6.3
		c7.9,5.8,3.8,17.2-3.4,27c-10.5,14.3-35.8,33.9-49.5,41.5C273.7,179.3,272,180.5,270.2,178.9z"/>
	<path fill="#FDBB30" d="M167.7,178.6c2.3-1,2.8-4.2,1.8-9.3c-3.8-17.5-12.1-57.4-19.3-78.1c-5.4-15.2-15.6-19.9-24.1-16.4
		c-11.4,4.8-11.2,17.7-7,28.3c7.7,19.7,32.7,56.9,40.4,70.2C162.2,177.9,165,179.9,167.7,178.6z"/>
	<path fill="#FDBB30" d="M134.2,178.9c1.9-1.5,1.9-3.8-0.1-7.2c-6.7-11.1-28.5-43.5-38.8-56.5c-7.4-9.5-15.5-10.4-21-6.3
		c-7.9,5.8-3.8,17.2,3.4,27c10.5,14.3,35.8,33.9,49.5,41.5C130.7,179.3,132.4,180.5,134.2,178.9z"/>
</g>
<g>
	<path d="M11.7,197.4h11.2v16.2c1.2-1.2,3.9-3.9,9.2-3.9c2.9,0,5.8,0.7,8.2,3.1c2.9,2.6,2.9,5.8,2.9,10.1v17.2H32.3v-15.9
		c0-2.5,0-7.3-4.5-7.3c-3.5,0-4.4,2.9-4.7,4.1c-0.3,1.3-0.3,3.2-0.3,5.7v13.4H11.7V197.4z"/>
	<path d="M56.9,227.4c0,1.6,0,7.2,5.7,7.2c2.9,0,4.8-1.5,5.1-4.2h10.4c-0.9,7.4-7.7,10.4-15.5,10.4c-10.4,0-15.9-5.3-15.9-15
		c0-9.9,4.8-16.4,15.8-16.4c8.3,0,12.1,3.4,14,7.6c1.3,2.5,1.6,5.4,1.6,10.5H56.9z M67.7,221.4c-0.1-1.8-0.4-6.1-5.3-6.1
		s-5.3,4.8-5.4,6.1H67.7z"/>
	<path d="M101.5,239.9c-0.3-1-0.3-2.3-0.3-4.2c-1.3,2-3.6,4.8-9.8,4.8c-7.3,0-10.4-3.9-10.4-9.2c0-8,7.4-10.9,20.1-10.5
		c0-3.2-0.3-6.1-3.6-6.1c-2,0-3.9,1.2-3.9,4.5H82.9c0-1.3,0-3.9,2.3-6.1c2.3-2.3,6.9-3.6,12.3-3.6c2.6,0,8.3,0.3,11.4,3.4
		c1.9,1.9,2.6,4.5,2.6,7.7v13.7c0,2.2,0,2.8,0.6,5.7L101.5,239.9L101.5,239.9z M91.8,230.4c0,2.2,1.5,3.9,4.1,3.9
		c1.2,0,3.2-0.4,4.4-2.8c0.9-1.9,0.9-4.2,0.9-5.5C96.4,226.1,91.8,226.1,91.8,230.4"/>
	<rect x="116.5" y="197.4" width="11.1" height="42.5"/>
	<path d="M133.3,197.6h11.2v7.9h-11.4v-7.9H133.3z M133.4,210.4h11.1v29.6h-11.1V210.4z"/>
	<path d="M150.1,216.7l-0.3-6.3h11.1l0.1,4.5c1.3-2.2,3.6-5.3,9.8-5.3c10.8,0,10.8,8.3,10.8,12.3v18h-11.1V223c0-2,0-6.3-4.5-6.3
		c-5,0-5,5.3-5,6.3v16.9h-10.9V216.7z"/>
	<path d="M219.7,210.1v27.6c0,3.5-0.7,7.7-4.7,10.5c-2.5,1.9-6.1,3.4-12.3,3.4c-3.4,0-8.9-0.4-12.3-3.5c-2.6-2.3-2.6-5.1-2.8-6.6
		h10.4c0,2.2,1.6,3.8,4.8,3.8c5.5,0,5.8-3.9,5.8-7.2v-3.9c-3.1,4.5-7.9,4.8-9.5,4.8c-6.3,0-13.1-3.9-13.1-14.7
		c0-8,4.2-14.7,13.3-14.7c5.7,0,8.3,2.6,9.8,5V210h10.5V210.1z M203.5,215.8c-3.6,0-5.7,3.4-5.7,8.3c0,3.1,0.7,8.3,5.5,8.3
		c5.3,0,5.5-6.3,5.5-8.3C208.8,222.6,208.8,215.8,203.5,215.8"/>
	<path d="M245.4,219.5c-0.3-4.5-3.2-6.7-8-6.7c-5.4,0-8.8,5.7-8.8,12.4s3.4,12.6,8.8,12.6c4.5,0,7.7-2.8,8-6.9h3.8
		c-0.9,6.7-4.8,10.1-11.5,10.1c-8.9,0-13-7.6-13-15.6c0-8,4.4-15.6,13.1-15.6c6.1,0,11.1,3.6,11.4,9.9h-3.8V219.5z"/>
	<path d="M256.8,226.1c0.1,6.3,3.1,11.7,10.2,11.7c4.2,0,7.6-3.1,8.5-7h3.6c-1.8,7-6.3,10.4-13.4,10.4c-8.9,0-13-7.6-13-15.6
		c0-8,4.4-15.6,13.1-15.6c9.9,0,13.4,7.3,13.4,16.5h-22.5V226.1z M275.8,222.7c-0.4-5.7-3.5-10.1-9.6-10.1c-5.8,0-8.9,4.8-9.3,10.1
		H275.8z"/>
	<path d="M288.3,239.9h-3.5V217c0-2.3-0.1-4.7-0.3-6.7h3.6l0.1,4.4l0.1,0.1c2-3.6,5.4-5.4,9.2-5.4c9.6,0,10.4,8.6,10.4,12v18.5h-3.5
		v-19.1c0-5.1-2.9-8.2-7.7-8.2c-5.8,0-8.5,5-8.5,10.2L288.3,239.9L288.3,239.9z"/>
	<path d="M318.5,213.6h-5.8v-3.2h5.8v-6.3l3.5-1.5v7.9h6.7v3.2H322v19.9c0,2.8,1.3,4.2,4.1,4.2c1,0,2.2,0,3.1-0.3v3.1
		c-1.2,0.3-2.5,0.6-3.6,0.6c-7.4,0-7-4.8-7-8.8V213.6z"/>
	<path d="M336.2,226.1c0.1,6.3,3.1,11.7,10.2,11.7c4.2,0,7.6-3.1,8.5-7h3.6c-1.9,7-6.3,10.4-13.4,10.4c-8.9,0-13-7.6-13-15.6
		c0-8,4.4-15.6,13.1-15.6c9.9,0,13.4,7.3,13.4,16.5h-22.5V226.1z M355.3,222.7c-0.4-5.7-3.5-10.1-9.6-10.1c-5.8,0-8.9,4.8-9.3,10.1
		H355.3z"/>
	<path d="M367.9,239.9h-3.5V217c0-2.3-0.1-4.7-0.3-6.7h3.6l0.1,4.4h0.1c1-3.1,3.6-5.1,6.7-5.3c1.2,0,2.3,0,3.5,0v3.4
		c-0.7,0-1.5-0.3-2.2-0.3c-5.3,0-8,3.8-8.2,9.5V239.9z"/>
	<path d="M46,181.8h-3.4v-1.9H46v-3.6l2-0.9v4.5H52v1.9H48v11.5c0,1.6,0.7,2.5,2.3,2.5c0.6,0,1.2,0,1.8-0.1v1.8
		c-0.6,0.1-1.5,0.3-2,0.3c-4.4,0-4.1-2.8-4.1-5.1V181.8z"/>
	<path d="M57.1,182.6L57.1,182.6c1.3-2.2,3.2-3.1,5.4-3.1c5.5,0,6,5,6,6.9V197h-2v-11.1c0-2.9-1.8-4.7-4.5-4.7c-3.4,0-5,2.8-5,5.8
		v9.9h-2v-24.7h2v10.2H57.1z"/>
	<path d="M74.3,189c0,3.6,1.8,6.7,6,6.7c2.5,0,4.4-1.8,5-4.1h2.2c-1,4.1-3.6,6-7.7,6c-5.1,0-7.4-4.4-7.4-9.1c0-4.7,2.6-9.1,7.6-9.1
		c5.7,0,7.9,4.2,7.9,9.5H74.3z M85.4,187.1c-0.3-3.4-2-5.8-5.5-5.8c-3.4,0-5.1,2.8-5.4,5.8H85.4z"/>
	<path d="M376.4,235.5c0-2.6,2.2-4.8,5-4.8c2.6,0,4.8,2.2,4.8,4.8c0,2.6-2.2,5-4.8,5C378.5,240.4,376.4,238.2,376.4,235.5
		 M381.2,239.6c2.3,0,4.1-1.8,4.1-4.1c0-2.3-1.8-4.1-4.1-4.1s-4.1,1.8-4.1,4.1C377.1,237.9,378.8,239.6,381.2,239.6 M383.6,236.4
		c-0.1,1.2-1.2,1.9-2.2,1.9c-1.6,0-2.8-1.2-2.8-2.8c0-1.6,1-2.8,2.6-2.8c1.2,0,2.2,0.7,2.3,1.9h-0.7c-0.1-0.7-0.7-1.2-1.6-1.2
		c-1.3,0-1.9,1-1.9,2.2c0,1,0.7,2.2,1.9,2.2c0.7,0,1.5-0.6,1.5-1.3h0.9V236.4z"/>
</g>
<g>
	<path d="M27.9,262c-0.2-3.1-2.2-4.6-5.5-4.6c-3.7,0-6,3.8-6,8.4c0,4.6,2.3,8.5,6,8.5c3.1,0,5.3-1.9,5.5-4.7h2.6
		c-0.6,4.6-3.3,6.9-7.8,6.9c-6,0-8.8-5.2-8.8-10.6c0-5.4,3-10.6,9-10.6c4.1,0,7.5,2.5,7.7,6.8H27.9z"/>
	<path d="M37.8,250H35v-3h2.8V250z M37.6,255.8v20.1h-2.4v-20.1H37.6z"/>
	<path d="M46.5,275.9h-2.4v-15.6c0-1.6-0.1-3.2-0.2-4.5h2.5l0.1,3l0.1,0.1c1.4-2.5,3.7-3.6,6.3-3.6c6.6,0,7.1,5.8,7.1,8.1v12.6h-2.4
		v-13c0-3.5-2-5.5-5.3-5.5c-4,0-5.8,3.3-5.8,6.9V275.9z"/>
	<path d="M79,262c-0.2-3.1-2.2-4.6-5.5-4.6c-3.7,0-6,3.8-6,8.4c0,4.6,2.3,8.5,6,8.5c3.1,0,5.3-1.9,5.5-4.7h2.6
		c-0.6,4.6-3.3,6.9-7.8,6.9c-6,0-8.8-5.2-8.8-10.6c0-5.4,3-10.6,9-10.6c4.1,0,7.5,2.5,7.7,6.8H79z"/>
	<path d="M89,250h-2.8v-3H89V250z M88.8,255.8v20.1h-2.4v-20.1H88.8z"/>
	<path d="M97.6,275.9h-2.4v-15.6c0-1.6-0.1-3.2-0.2-4.5h2.5l0.1,3l0.1,0.1c1.4-2.5,3.7-3.6,6.3-3.6c6.6,0,7.1,5.8,7.1,8.1v12.6h-2.4
		v-13c0-3.5-2-5.5-5.3-5.5c-4,0-5.8,3.3-5.8,6.9V275.9z"/>
	<path d="M119.8,275.9h-2.4v-15.6c0-1.6-0.1-3.2-0.2-4.5h2.5l0.1,3l0.1,0.1c1.4-2.5,3.7-3.6,6.3-3.6c6.6,0,7.1,5.8,7.1,8.1v12.6
		h-2.4v-13c0-3.5-2-5.5-5.3-5.5c-4,0-5.8,3.3-5.8,6.9V275.9z"/>
	<path d="M151,261.7c-0.2-3.3-1.9-4.3-4.8-4.3c-2.5,0-4.6,0.8-4.9,3.5h-2.6c0.6-4.1,3.7-5.7,7.5-5.7c4.4,0,7.2,2,7.1,6.6v9.5
		c0,1.6,0.1,3.2,0.2,4.5h-2.5l-0.1-3H151l-0.1,0.3c-0.9,1.7-3.6,3.3-6.3,3.3c-3.7,0-6.7-2.3-6.7-6.2c0-2.7,1.6-4.8,4-5.8
		c2.7-1.2,6.2-0.8,9.1-0.9V261.7z M145,274.3c5.2,0,6.2-4.3,6-8.5c-3.4,0.1-10.5-0.5-10.5,4.5C140.5,273,142.6,274.3,145,274.3z"/>
	<path d="M161.4,258h-4v-2.2h4v-4.3l2.4-1v5.3h4.6v2.2h-4.6v13.4c0,1.8,0.9,2.8,2.8,2.8c0.7,0,1.4,0,2.1-0.2v2.1
		c-0.8,0.2-1.6,0.4-2.4,0.4c-5.1,0-4.8-3.2-4.8-6V258z"/>
	<path d="M175.6,250h-2.8v-3h2.8V250z M175.4,255.8v20.1H173v-20.1H175.4z"/>
</g>
</svg>
